<svg width="46" height="42" xmlns="http://www.w3.org/2000/svg">

 <metadata id="metadata899">image/svg+xml</metadata>
 <g>
  <title>background</title>
  <rect fill="none" id="canvas_background" height="44" width="48" y="-1" x="-1"/>
 </g>
 <g>
  <title>Layer 1</title>
  <g id="layer1">
   <path fill="#2f6534" fill-rule="evenodd" stroke-width="0.264583" d="m0,18.14256c7.25834,0.12599 15.4315,-2.37914 20.79397,-6.99554c0.51999,-0.44756 1.73374,-1.69915 2.13969,-1.90161c2.39461,2.4756 5.36937,4.65154 9.45007,6.35238c3.61439,1.50665 8.97252,2.77032 13.43284,2.53114c-1.21796,-0.46921 -4.09895,-0.6835 -7.7197,-2.17498c-7.65627,-3.15391 -11.25998,-7.08454 -15.18684,-14.57603c-0.3265,0.30583 -1.42804,2.43962 -1.78814,3.07504c-0.6464,1.14049 -1.23962,2.11407 -1.95746,3.04128c-1.52493,1.96966 -2.99768,3.33965 -5.0146,4.86569c-2.70859,2.04957 -6.58524,3.85344 -10.0693,4.81705c-0.96896,0.26803 -3.43683,0.66215 -4.08053,0.96558z" id="path2"/>
   <path fill="#acc516" fill-rule="evenodd" stroke-width="0.264583" d="m32.52829,11.62889c0.36169,-0.92348 0.41273,-1.63402 0.8631,-2.59189c1.28831,-2.73955 4.24,-3.91559 4.76287,-5.50589c-0.74713,1.68144 -1.97961,2.44758 -3.06964,3.6495c-0.76076,0.83897 -1.97236,3.17596 -1.87084,4.84061c0.74422,-0.32065 4.37658,-3.67808 5.05505,-4.51715c0.74736,-0.92443 1.33178,-1.94372 1.57014,-3.24705c0.25037,-1.3685 0.10747,-3.3869 -0.65154,-4.25702c-0.97139,0.45377 -4.421,3.48784 -5.22875,4.37509c-1.67819,1.84334 -2.48266,4.12576 -1.43039,7.2538z" id="path4"/>
   <path fill="#acc516" fill-rule="evenodd" stroke-width="0.264583" d="m25.76636,22.30633c0.24511,-0.0812 0.66622,-0.10966 0.94028,-0.18034c0.29729,-0.0767 0.50477,-0.16661 0.75832,-0.30321c1.22748,-0.6613 1.87849,-1.6799 2.32304,-2.98273c0.0808,-0.2367 0.12806,-0.57301 0.25903,-0.77481c0.11901,0.9185 0.8059,2.34368 1.38213,2.87777c0.88839,0.82341 1.572,1.25886 2.86928,1.35226c-0.34571,3.39487 -4.59907,5.06489 -7.19498,2.67904c-0.51556,-0.47382 -1.42642,-1.74228 -1.3371,-2.66798zm-2.84876,2.70902c0.0401,0.1339 0.0219,0.13104 0.0863,0.29053c0.0445,0.1102 0.0707,0.14915 0.11546,0.23638c0.0822,0.15992 0.14655,0.28205 0.23148,0.41394c0.83929,1.30324 2.13175,1.71397 3.62286,0.91321c1.03148,-0.55401 0.57624,-0.41809 1.39854,-0.15782c0.93202,0.29506 1.97337,0.36478 2.91081,0.10734c1.67259,-0.45945 0.53782,-0.5203 1.87606,0.11192c1.0791,0.5098 2.11262,0.4981 2.98153,-0.31676c0.38304,-0.35928 0.86217,-1.08979 0.98089,-1.59874c-0.18827,-0.12722 -0.42158,-0.13695 -0.66545,-0.32497c-1.22581,-0.94496 -1.14548,-3.23141 -1.45523,-4.37276c-0.0784,-0.28882 -0.17751,-0.42627 -0.292,-0.65921c-0.15816,-0.32184 -0.22627,-0.54507 -0.4314,-0.79854c-0.0634,-0.0783 -0.0508,-0.056 -0.10287,-0.13285c-2.18649,-3.22728 -7.27975,-2.68891 -8.89661,0.91456c-0.63418,1.41327 -0.30113,3.08128 -1.26445,4.55946c-0.27879,0.42785 -0.47786,0.56689 -0.90829,0.73488l-0.18763,0.07943z" id="path6"/>
   <path fill="#acc516" fill-rule="evenodd" stroke-width="0.264583" d="m14.32097,19.50538l0.0194,2.07415c0.83351,-0.002 1.82268,0.0362 2.62032,-0.0243l0.2481,-1.87793c0.002,-0.0237 0.01,-0.0305 0.0419,-0.0483l0.30634,1.94304l2.51494,0.0143c0.0333,1.43227 -0.37708,2.4561 -1.17073,3.32203c-1.59893,1.74458 -4.45479,1.86174 -6.27935,-0.0146c-0.80947,-0.83241 -1.21513,-1.94693 -1.16184,-3.31033l2.04785,-0.022l0.81307,-2.05606zm-0.25165,7.34708c1.08656,0.23315 1.80142,0.49456 3.17775,0.0654c0.52134,-0.16256 0.4712,-0.0874 0.97729,0.0939c0.5742,0.20561 2.40985,0.8875 2.73741,0.9402c-0.0353,-1.36874 -0.008,-2.75733 -0.0191,-4.12895c-0.0109,-1.34038 0.13327,-2.57226 -0.32414,-3.73584c-1.73951,-4.42508 -7.9516,-4.47128 -9.71206,0.0152c-0.45937,1.17065 -0.30689,2.4312 -0.31795,3.77952c-0.0108,1.31625 0.0476,2.75873 -0.0239,4.05696c0.95078,-0.0638 2.89221,-1.21774 3.50475,-1.08635l-0.00005,-0.00004z" id="path8"/>
   <path fill="#acc516" fill-rule="evenodd" stroke-width="0.264583" d="m12.69812,23.24814c0.29585,0.85935 1.13207,1.84809 1.82631,2.16035c1.38962,0.62492 2.91806,-0.37449 3.08443,-0.435c-1.38477,-0.54909 -2.70179,0.74655 -4.91074,-1.72535z" id="path10"/>
   <path fill="#2f6534" fill-rule="evenodd" stroke="#2f6534" stroke-width="0.374994" d="m13.99704,34.47185l-0.10957,0.76703c-0.0183,0.14608 -0.0928,0.26175 -0.2237,0.34692c-0.22143,0.1442 -0.45784,0.21196 -0.71679,0.2466c-0.0913,0.0121 -0.16742,0.0182 -0.2283,0.0182c-0.36524,0 -0.63913,-0.14457 -0.82177,-0.43374c-0.18262,-0.28911 -0.27395,-0.66501 -0.27395,-1.12765c0,-0.17651 0.0244,-0.43371 0.0731,-0.77156c0.0971,-0.67413 0.23579,-1.32998 0.37438,-1.99512c0.0487,-0.18873 0.0943,-0.36221 0.13698,-0.52049c0.0426,-0.15827 0.0822,-0.28611 0.11869,-0.38351l-0.0731,0c-0.0757,0.14204 -0.14714,0.28526 -0.21908,0.42916c-0.0533,0.0798 -0.094,0.16987 -0.137,0.2557c-0.042,0.0629 -0.0711,0.12755 -0.10953,0.19177c0,0.007 -0.00027,0.009 -0.009,0.009c-0.0645,0.12896 -0.13611,0.25389 -0.20088,0.38349c-0.1035,0.20701 -0.24656,0.47177 -0.42915,0.79438c-0.18264,0.32263 -0.38658,0.65439 -0.6118,0.99531c-0.16436,0.25569 -0.33628,0.50371 -0.51585,0.74417c-0.35878,0.48019 -1.11451,1.42898 -1.76687,1.42898c-0.28003,0 -0.48088,-0.15978 -0.60264,-0.47939c-0.12176,-0.31957 -0.18264,-0.76237 -0.18264,-1.32853c0,-0.15827 0.009,-0.33935 0.0274,-0.54329c0.0182,-0.20392 0.0395,-0.41244 0.0639,-0.62545c0.0472,-0.33002 0.10551,-0.65979 0.17351,-0.98618c0.024,-0.11203 0.0477,-0.22437 0.0639,-0.33785c0,-0.0144 0.009,-0.0129 0.009,-0.0274c0,-0.0707 0.0232,-0.13957 0.0319,-0.21003c0.003,-0.0244 0.008,-0.0457 0.0137,-0.0639c0,-0.0307 0.004,-0.07281 0.0183,-0.10041c0.014,-0.11202 0.0523,-0.22854 0.0822,-0.33784l-0.0731,0c-0.21516,0.49763 -0.44233,0.98972 -0.69392,1.4701c-0.073,0.14605 -0.14912,0.29218 -0.22829,0.43831c-0.18878,0.34854 -0.38211,0.70033 -0.58438,1.0409c-2.82792,4.76406 -3.84046,0.34794 -3.05488,0.21308c0.33327,-0.05719 0.57981,1.32977 1.14514,0.92845c0.78698,-0.55856 1.50471,-2.15077 2.0102,-3.07729c0.24958,-0.45656 0.46165,-0.9126 0.68027,-1.34683c0.20145,-0.40013 0.37619,-0.7043 0.55221,-0.90173c0.0925,-0.10364 0.13833,-0.0968 0.26104,-0.0949l0.53367,0.008c0.20592,0.003 0.19899,0.0847 0.19222,0.31033c-0.0387,1.27942 -0.19233,2.68211 -0.19233,3.86927c0,0.30435 0.0152,0.5235 0.0457,0.65741c0.0134,0.0591 0.0544,0.2554 0.12327,0.27852c0.0865,0.0286 0.25296,-0.0974 0.31498,-0.14612c0.12782,-0.10041 0.31348,-0.31806 0.557,-0.65284c0.33015,-0.45939 0.63445,-0.94665 0.92221,-1.43356c0.16597,-0.2726 0.3271,-0.54793 0.47485,-0.8309c0.23129,-0.41394 0.44582,-0.81881 0.64367,-1.21446c0.1478,-0.29554 0.29327,-0.52314 0.43284,-0.69313c0.0312,-0.038 0.10353,-0.1324 0.27315,-0.1315c0.18693,0.001 0.44932,0.003 0.53597,0.009c0.15936,0.0127 0.28794,-0.0105 0.2653,0.13285c-0.21196,1.3395 -0.51462,3.26186 -0.51462,4.57917c0,0.31208 0.0674,0.79652 0.45464,0.79652c0.0496,0 0.0966,-0.009 0.14612,-0.009c0.31171,-0.0599 0.63283,-0.28674 0.82177,-0.5387l-0.00004,0.00068z" id="path12"/>
   <path fill="#2f6534" fill-rule="evenodd" stroke="#2f6534" stroke-width="0.374994" d="m19.42052,31.88804l-0.63916,2.53823c-0.0121,0.0487 -0.0228,0.0929 -0.032,0.13239c-0.009,0.03959 -0.0136,0.0776 -0.0136,0.11415c-0.006,0.0305 -0.009,0.0609 -0.009,0.0913c0,0.0304 0,0.0609 0,0.0913c0,0.006 0,0.0107 0,0.0137c0,0.003 0,0.008 0,0.0137c0,0.0365 0.009,0.073 0.0274,0.10956c0.0183,0.0365 0.0609,0.0548 0.12782,0.0548c0.0487,0 0.11415,-0.0122 0.19635,-0.0365c0.0821,-0.0243 0.16582,-0.0578 0.25109,-0.10041c0.0304,-0.0122 0.0608,-0.0243 0.0913,-0.0365c0.0304,-0.0121 0.0578,-0.0243 0.0822,-0.0365c0.0669,-0.03651 0.12779,-0.07 0.18254,-0.10045c0.0548,-0.0305 0.0974,-0.05469 0.12787,-0.07299l-0.16439,0.6483c-0.0731,0.0791 -0.15367,0.1491 -0.24196,0.21c-0.0882,0.0608 -0.17497,0.11258 -0.26016,0.15518c-0.1461,0.0609 -0.28612,0.10499 -0.42,0.13237c-0.13396,0.0274 -0.24352,0.0411 -0.32875,0.0411c-0.17645,0 -0.32107,-0.0411 -0.43362,-0.12322c-0.11266,-0.0822 -0.19021,-0.17806 -0.23289,-0.28762c-0.0182,-0.0305 -0.0304,-0.0624 -0.0365,-0.0959c-0.006,-0.0335 -0.009,-0.0655 -0.009,-0.0958c0,-0.0427 0.006,-0.0959 0.0182,-0.15984c0.0122,-0.0639 0.0274,-0.1293 0.0457,-0.19627c0.0121,-0.0304 0.0228,-0.0609 0.0319,-0.0914c0.009,-0.0304 0.0198,-0.0608 0.032,-0.0913c0.006,-0.0244 0.0137,-0.0487 0.0228,-0.073c0.009,-0.0244 0.0168,-0.0457 0.0229,-0.0639l-0.0914,0c-0.073,0.24953 -0.24802,0.48541 -0.52498,0.70763c-0.27692,0.22215 -0.5706,0.37891 -0.88104,0.47019c-0.0913,0.0244 -0.17955,0.0442 -0.26482,0.0593c-0.0852,0.0152 -0.17039,0.0229 -0.25559,0.0229c-0.37134,0 -0.69548,-0.11414 -0.97237,-0.34237c-0.27699,-0.22828 -0.4155,-0.57068 -0.4155,-1.02719c0,-0.006 0,-0.0136 0,-0.0228c0,-0.009 0,-0.0198 0,-0.0319c0.0183,-0.62701 0.32565,-1.2037 0.92218,-1.73027c0.59655,-0.52649 1.27524,-0.78975 2.0361,-0.78975c0.0852,0 0.16732,0.006 0.24646,0.0182c0.0792,0.0122 0.15833,0.0304 0.23746,0.0548c0.0852,0.0305 0.1719,0.0654 0.26017,0.10501c0.0883,0.0395 0.18113,0.0867 0.27847,0.14152l0.0822,-0.31959l0.90362,-0.00016zm-1.15959,0.9222c-0.13994,-0.067 -0.27848,-0.11564 -0.41542,-0.1461c-0.13695,-0.0304 -0.27239,-0.0426 -0.40627,-0.0365c-0.43831,0 -0.82021,0.13544 -1.14586,0.40627c-0.32565,0.27091 -0.54935,0.57068 -0.67109,0.89932c-0.0305,0.0853 -0.0548,0.16891 -0.0731,0.25111c-0.0182,0.0822 -0.0274,0.16283 -0.0274,0.24194c0,0.20701 0.0472,0.36676 0.14153,0.47934c0.0943,0.11264 0.22672,0.16897 0.39714,0.16897c0.0791,0 0.15824,-0.009 0.23743,-0.0274c0.0791,-0.0182 0.16127,-0.0426 0.24646,-0.073c0.34087,-0.14603 0.6681,-0.41542 0.98153,-0.80799c0.3135,-0.39261 0.55851,-0.84457 0.73498,-1.35585l0.00007,-0.00011z" id="path14"/>
   <path fill="#2f6534" fill-rule="evenodd" stroke="#2f6534" stroke-width="0.374994" d="m20.95478,37.63102l-0.91305,0l1.45172,-5.91644l0.91305,0l-0.36518,1.49738l0.0821,-0.0274c0.16439,-0.38349 0.42765,-0.71369 0.78981,-0.99068c0.36219,-0.27696 0.74107,-0.43063 1.1367,-0.46109c0.0244,-0.006 0.0472,-0.009 0.0685,-0.009c0.0213,0 0.0411,0 0.0593,0c0.0122,0 0.0244,0 0.0365,0c0.0122,0 0.0244,0 0.0365,0c0.31652,0.0182 0.60413,0.14759 0.86281,0.38804c0.25876,0.24037 0.38806,0.60714 0.38806,1.10019c0,0.0852 -0.006,0.16888 -0.0182,0.25109c-0.0121,0.0821 -0.0274,0.16581 -0.0457,0.25109c-0.14607,0.54173 -0.48538,1.03479 -1.01803,1.47907c-0.53258,0.4444 -1.18846,0.66654 -1.96755,0.66654c-0.0852,0 -0.1659,-0.005 -0.24196,-0.0137c-0.0761,-0.009 -0.15367,-0.0228 -0.23286,-0.041c-0.0852,-0.0244 -0.17042,-0.0503 -0.25562,-0.0776c-0.0852,-0.0274 -0.17653,-0.0655 -0.27389,-0.11417l-0.49301,2.01768zm0.68477,-2.67516c0.0426,0.01819 0.0852,0.035 0.1278,0.0503c0.0427,0.0152 0.0853,0.0258 0.12787,0.032c0.0852,0.0243 0.17039,0.041 0.25559,0.0502c0.0853,0.009 0.17047,0.0137 0.25569,0.0137c0.43828,0 0.82328,-0.12938 1.15499,-0.38807c0.33173,-0.25865 0.57366,-0.54628 0.72585,-0.8628c0.0487,-0.10348 0.0852,-0.20544 0.10957,-0.30592c0.0244,-0.10043 0.0365,-0.19626 0.0365,-0.28755c0,-0.0365 -0.002,-0.0746 -0.005,-0.11414c-0.003,-0.0396 -0.0107,-0.07761 -0.0228,-0.11416c-0.0305,-0.14611 -0.0959,-0.27848 -0.19635,-0.39712c-0.10044,-0.11871 -0.25104,-0.17806 -0.45196,-0.17806c-0.006,0 -0.0121,0 -0.0182,0c-0.006,0 -0.0122,0 -0.0183,0c-0.29213,0.0122 -0.57669,0.16433 -0.85365,0.45654c-0.27697,0.29212 -0.51893,0.61169 -0.72586,0.95864c-0.12171,0.20701 -0.22521,0.40629 -0.31041,0.59806c-0.0853,0.19169 -0.14917,0.35452 -0.19177,0.48847l0.00044,-0.00009z" id="path16"/>
   <path fill="#2f6534" fill-rule="evenodd" stroke="#2f6534" stroke-width="0.374994" d="m27.99466,32.67322c-0.0487,-0.01211 -0.10192,-0.0289 -0.15976,-0.05021c-0.0578,-0.02129 -0.11414,-0.0472 -0.16896,-0.0776c-0.20085,-0.0913 -0.38497,-0.22672 -0.55237,-0.40627c-0.1674,-0.17955 -0.25104,-0.40635 -0.25104,-0.68024c0,-0.006 0,-0.0122 0,-0.0182c0,-0.006 0,-0.009 0,-0.009c0.0121,-0.54631 0.35761,-1.04844 1.0363,-1.50952c0.67865,-0.46109 1.77884,-0.72742 3.30059,-0.80048c0.0852,-0.006 0.16889,-0.009 0.25109,-0.009c0.0821,0 0.16283,0 0.24197,0c0.0547,0 0.10956,0 0.1643,0c0.0548,0 0.10959,0.003 0.16433,0.009c0.17048,0.0183 0.28306,0.0411 0.33788,0.0685c0.0547,0.0274 0.0821,0.0624 0.0821,0.10498c0,0.006 -0.002,0.0168 -0.005,0.032c-0.003,0.0152 -0.008,0.029 -0.0137,0.0411c0,0.006 -0.002,0.0122 -0.005,0.0183c-0.003,0.006 -0.005,0.0121 -0.005,0.0182l-0.073,0.22831c-0.0304,0.10499 -0.07,0.16431 -0.11864,0.17955c-0.0487,0.0137 -0.12481,0.0213 -0.22831,0.0213c-0.0121,0 -0.0259,0 -0.0411,0c-0.0152,0 -0.0289,0 -0.041,0c-0.006,0 -0.0122,0 -0.0183,0c-0.006,0 -0.0121,0 -0.0182,0c-0.006,0 -0.0122,0 -0.0183,0c-0.006,0 -0.0121,0 -0.0182,0c-1.22346,0.0182 -2.17453,0.1887 -2.85322,0.51125c-0.67873,0.32266 -1.03634,0.6757 -1.07288,1.05916c0,0.006 0,0.0136 0,0.0228c0,0.009 0,0.0198 0,0.032c0,0.26781 0.12181,0.44894 0.36526,0.54329c0.24344,0.0943 0.51128,0.1506 0.80348,0.16889c0.0913,0.006 0.18262,0.0107 0.2739,0.0136c0.0913,0.003 0.17656,0.005 0.25567,0.005c0.25561,0 0.45802,-0.008 0.60714,-0.0228c0.14917,-0.0152 0.27545,-0.035 0.37888,-0.0593c0.0548,-0.006 0.1035,-0.0152 0.1461,-0.0274c0.0426,-0.0121 0.0852,-0.0213 0.1278,-0.0274c0.0305,-0.006 0.064,-0.0106 0.10051,-0.0136c0.0365,-0.003 0.073,-0.005 0.10949,-0.005c0.0792,0 0.13702,0.0122 0.17348,0.0365c0.0365,0.0243 0.0548,0.0639 0.0548,0.11864c0,0.01221 -0.002,0.0259 -0.005,0.0411c-0.003,0.0152 -0.008,0.0319 -0.0137,0.0503l-0.10948,0.37433c-0.0304,0.10956 -0.0898,0.17497 -0.17807,0.19627c-0.0883,0.0213 -0.2663,0.035 -0.53414,0.0411c-0.0426,0 -0.0822,0 -0.11871,0c-0.0365,0 -0.073,0 -0.10952,0c-0.0853,0 -0.17803,0.005 -0.27847,0.0137c-0.10049,0.009 -0.2481,0.0259 -0.44286,0.0502c-0.68784,0.073 -1.23415,0.21309 -1.63891,0.41999c-0.40478,0.20701 -0.65587,0.42916 -0.75321,0.66654c-0.0183,0.0365 -0.0305,0.0715 -0.0365,0.10499c-0.006,0.0335 -0.009,0.0685 -0.009,0.10501c0,0.0426 0.008,0.0928 0.0229,0.15068c0.0151,0.0578 0.0441,0.11713 0.0867,0.17804c0.0791,0.10959 0.21148,0.21 0.39719,0.30128c0.18563,0.0913 0.45495,0.13695 0.80798,0.13695c0.1887,0 0.40325,-0.0137 0.64371,-0.0411c0.24045,-0.0274 0.4854,-0.0654 0.73501,-0.11409c0.3165,-0.0609 0.62391,-0.13695 0.92213,-0.22831c0.29826,-0.0913 0.5448,-0.19169 0.73956,-0.30125c0.0852,-0.0487 0.15375,-0.0791 0.20542,-0.0914c0.0518,-0.0121 0.0898,-0.0182 0.11417,-0.0182c0.0244,0 0.0426,0.0152 0.0548,0.0457c0.0121,0.0304 0.0182,0.0639 0.0182,0.10041c0,0.0121 0,0.0228 0,0.032c0,0.009 0,0.0167 0,0.0228c-0.006,0.0426 -0.0167,0.0837 -0.032,0.12332c-0.0152,0.0395 -0.029,0.0776 -0.0411,0.11406c-0.0121,0.0122 -0.0213,0.0259 -0.0274,0.0411c-0.006,0.0152 -0.0121,0.029 -0.0183,0.0411c-0.0913,0.1887 -0.32864,0.36216 -0.71213,0.52041c-0.38346,0.15828 -0.7943,0.28914 -1.23261,0.39264c-0.28604,0.0608 -0.56452,0.10957 -0.83542,0.14611c-0.27083,0.0365 -0.50062,0.0547 -0.68932,0.0547c-0.59656,0 -1.06524,-0.0989 -1.4061,-0.29671c-0.34089,-0.19785 -0.57825,-0.41849 -0.71213,-0.66193c-0.0548,-0.0975 -0.0959,-0.19328 -0.1233,-0.28763c-0.0274,-0.0943 -0.0411,-0.18113 -0.0411,-0.26027c0,-0.0852 0.0168,-0.20233 0.0502,-0.35153c0.0335,-0.14909 0.1111,-0.30276 0.23281,-0.46101c0.13396,-0.18261 0.33787,-0.35459 0.61177,-0.51593c0.27392,-0.16124 0.65432,-0.27848 1.14128,-0.35153l0.00156,-0.00029z" id="path18"/>
   <path fill="#2f6534" fill-rule="evenodd" stroke="#2f6534" stroke-width="0.374994" d="m35.53682,32.13458l0,0.07299c0.0487,-0.0121 0.0989,-0.0213 0.15068,-0.0274c0.0517,-0.006 0.10192,-0.009 0.1506,-0.009c0.32263,0 0.59804,0.12024 0.82635,0.36068c0.22823,0.24037 0.34237,0.55237 0.34237,0.93587c0,0.0852 -0.008,0.1689 -0.0229,0.25103c-0.0152,0.0822 -0.035,0.16589 -0.0593,0.25109c-0.15217,0.47482 -0.47781,0.90697 -0.97695,1.29651c-0.49914,0.38958 -1.08045,0.58434 -1.7439,0.58434c-0.52342,0 -0.91149,-0.15674 -1.16408,-0.47017c-0.25268,-0.3135 -0.37897,-0.67717 -0.37897,-1.09111c0,-0.23736 0.0304,-0.47176 0.0913,-0.70305c0.0608,-0.23131 0.12782,-0.45346 0.20088,-0.66653c0.30435,-0.92519 0.73347,-1.71801 1.28735,-2.37838c0.55396,-0.66045 1.13221,-1.06374 1.73477,-1.20983c0.073,-0.0182 0.1461,-0.032 0.21915,-0.041c0.073,-0.009 0.14608,-0.0137 0.21913,-0.0137c0.26175,0 0.47935,0.076 0.65281,0.2282c0.17349,0.15219 0.26024,0.37134 0.26024,0.65746c0,0.0487 -0.003,0.0973 -0.009,0.14603c-0.006,0.0488 -0.0152,0.09739 -0.0274,0.1461c-0.073,0.26781 -0.21915,0.52649 -0.43831,0.7761c-0.21915,0.24953 -0.45045,0.45345 -0.69389,0.61169c-0.10957,0.07299 -0.21757,0.13396 -0.32414,0.18264c-0.1065,0.0487 -0.20543,0.0852 -0.29671,0.10957l-0.00008,-0.00013zm-0.2739,0.61168c-0.31043,0 -0.58891,0.10501 -0.83542,0.31501c-0.24654,0.21 -0.43675,0.4398 -0.57068,0.68941c-0.0608,0.11565 -0.108,0.22971 -0.14153,0.34237c-0.0334,0.11258 -0.0502,0.21458 -0.0502,0.30586c0,0.006 0,0.0106 0,0.0137c0,0.003 0,0.00799 0,0.0136c0.006,0.1705 0.07,0.32564 0.19172,0.46568c0.12171,0.13994 0.27998,0.21 0.47482,0.21c0.0791,0 0.15976,-0.0107 0.24196,-0.032c0.0821,-0.0213 0.16582,-0.0502 0.25101,-0.0868c0.29827,-0.1217 0.56918,-0.32713 0.81262,-0.61627c0.24347,-0.2891 0.36526,-0.59197 0.36526,-0.90846c0,-0.03651 -0.003,-0.0791 -0.009,-0.1278c-0.006,-0.0488 -0.0183,-0.09739 -0.0365,-0.1461c-0.0365,-0.10956 -0.10809,-0.21 -0.21458,-0.30136c-0.1065,-0.09131 -0.26633,-0.13694 -0.47932,-0.13694l-0.00016,0.0001zm-1.35128,0.03651c0.26781,-0.1522 0.53107,-0.32409 0.78976,-0.51587c0.25865,-0.19168 0.49453,-0.38496 0.70762,-0.57975c0.29213,-0.26782 0.52949,-0.52806 0.71213,-0.78068c0.18262,-0.2526 0.2739,-0.45802 0.2739,-0.61627c0,-0.0183 -0.003,-0.0396 -0.009,-0.0639c-0.006,-0.0244 -0.0152,-0.0487 -0.0275,-0.073c-0.0182,-0.04259 -0.0487,-0.08069 -0.0913,-0.11414c-0.0426,-0.0334 -0.10041,-0.0502 -0.17346,-0.0502c-0.11565,0 -0.23739,0.0335 -0.36526,0.10049c-0.1278,0.0669 -0.25559,0.15824 -0.38346,0.27389c-0.20087,0.17039 -0.39563,0.38497 -0.58433,0.64365c-0.18871,0.25877 -0.35611,0.52809 -0.50213,0.80807c-0.0853,0.17047 -0.15984,0.33779 -0.22373,0.50218c-0.0639,0.16433 -0.11107,0.31959 -0.14153,0.46561l0.01829,-0.00008z" id="path20"/>
   <path fill="#2f6534" fill-rule="evenodd" stroke="#2f6534" stroke-width="0.374994" d="m42.06573,31.88777l-0.63918,2.53844c-0.0122,0.04869 -0.0229,0.09279 -0.032,0.1324c-0.009,0.03959 -0.0136,0.0776 -0.0136,0.11412c-0.006,0.0305 -0.009,0.0609 -0.009,0.0913c0,0.0304 0,0.0609 0,0.0913c0,0.006 0,0.0107 0,0.0137c0,0.003 0,0.008 0,0.0137c0,0.0365 0.009,0.073 0.0274,0.10953c0.0183,0.0366 0.0609,0.0548 0.12785,0.0548c0.0487,0 0.11416,-0.0122 0.19634,-0.0365c0.0822,-0.0243 0.16587,-0.0578 0.25109,-0.10046c0.0305,-0.0121 0.0609,-0.0243 0.0913,-0.0365c0.0304,-0.0121 0.0578,-0.0243 0.0822,-0.0365c0.0669,-0.0365 0.12782,-0.07 0.18257,-0.10041c0.99086,-0.55022 0.0587,0.55266 -0.27848,0.78526c-0.0882,0.0609 -0.17499,0.11261 -0.26024,0.1552c-0.14605,0.0609 -0.2861,0.10504 -0.42,0.1324c-0.13393,0.0274 -0.24352,0.0411 -0.32872,0.0411c-0.17656,0 -0.32113,-0.0411 -0.43373,-0.12328c-0.11261,-0.0822 -0.19024,-0.17806 -0.23281,-0.28759c-0.0183,-0.03051 -0.0305,-0.0624 -0.0365,-0.0959c-0.006,-0.03351 -0.009,-0.0655 -0.009,-0.0959c0,-0.0426 0.006,-0.0958 0.0182,-0.15978c0.0122,-0.06391 0.0274,-0.12933 0.0457,-0.1963c0.0122,-0.0304 0.0229,-0.0609 0.0319,-0.0913c0.009,-0.0305 0.0198,-0.0609 0.032,-0.0913c0.006,-0.0244 0.0137,-0.0487 0.0228,-0.073c0.009,-0.0244 0.0167,-0.04569 0.0229,-0.06399l-0.0913,0c-0.073,0.2496 -0.2481,0.48548 -0.52507,0.7077c-0.27696,0.22217 -0.57065,0.37894 -0.88114,0.47019c-0.0913,0.0244 -0.17957,0.0442 -0.26474,0.0594c-0.0853,0.01519 -0.1705,0.0229 -0.25567,0.0229c-0.37137,0 -0.69551,-0.11416 -0.97247,-0.34242c-0.27697,-0.22828 -0.41545,-0.57071 -0.41545,-1.02724c0,-0.006 0,-0.0137 0,-0.02281c0,-0.009 0,-0.0198 0,-0.03199c0.0182,-0.627 0.32565,-1.20378 0.92223,-1.73028c0.59653,-0.52657 1.27529,-0.78989 2.03618,-0.78989c0.0852,0 0.1674,0.006 0.24651,0.0183c0.0792,0.01221 0.15828,0.0305 0.23744,0.0548c0.0852,0.0304 0.17195,0.0654 0.26024,0.10497c0.0883,0.03959 0.18109,0.08679 0.27848,0.14154l0.0822,-0.31961l0.90357,-0.0001zm-1.15967,0.92223c-0.13999,-0.06699 -0.27847,-0.11563 -0.41545,-0.14608c-0.13697,-0.0304 -0.27239,-0.04259 -0.40632,-0.0365c-0.43831,0 -0.82031,0.13541 -1.14594,0.40632c-0.3257,0.27088 -0.54938,0.57065 -0.67111,0.89943c-0.0305,0.0852 -0.0548,0.16891 -0.073,0.25109c-0.0183,0.0822 -0.0274,0.16279 -0.0274,0.24196c0,0.20693 0.0471,0.36676 0.14152,0.4794c0.0944,0.1126 0.22675,0.16891 0.3972,0.16891c0.0792,0 0.15827,-0.009 0.23743,-0.0274c0.0791,-0.0183 0.16127,-0.0426 0.24652,-0.0731c0.34086,-0.14611 0.66807,-0.41545 0.9816,-0.8081c0.31348,-0.39264 0.55851,-0.84462 0.73501,-1.35596l-0.00006,0.00003z" id="path22"/>
   <g transform="matrix(0.26458333,0,0,0.26458333,24.287071,-0.56565524) " id="Layer1000">
    <path fill="#2f6534" fill-rule="evenodd" stroke="#2f6534" stroke-width="0.216" d="m-73.393068,147.904416c0.1239,0 0.2222,0.0346 0.2948,0.1035c0.0723,0.0692 0.1086,0.1689 0.1086,0.3002l0,4.8512c0,0.1242 -0.0363,0.2222 -0.1086,0.2948c-0.0726,0.0723 -0.1709,0.1086 -0.2948,0.1086c-0.1242,0 -0.2208,-0.0363 -0.2897,-0.1086c-0.0689,-0.0726 -0.1035,-0.1706 -0.1035,-0.2948l0,-3.8789l-1.955,2.8238c-0.1035,0.1517 -0.231,0.2277 -0.3827,0.2277c-0.1448,0 -0.269,-0.076 -0.3725,-0.2277l-1.9445,-2.7824l0,3.8375c0,0.1242 -0.0346,0.2222 -0.1035,0.2948c-0.0689,0.0723 -0.1655,0.1086 -0.2897,0.1086c-0.1242,0 -0.2222,-0.0363 -0.2948,-0.1086c-0.0723,-0.0726 -0.1086,-0.1706 -0.1086,-0.2948l0,-4.8512c0,-0.1313 0.0363,-0.231 0.1086,-0.3002c0.0726,-0.0689 0.1706,-0.1035 0.2948,-0.1035c0.1794,0 0.3243,0.0828 0.4346,0.2483l2.2858,3.3101l2.2862,-3.3101c0.1173,-0.1655 0.2619,-0.2483 0.4345,-0.2483zm4.8407,-0.0516c0.538,0 1.0259,0.1259 1.4638,0.3776c0.438,0.2517 0.7827,0.5981 1.0344,1.0395c0.2517,0.4413 0.3776,0.9309 0.3776,1.4689l0,2.4307c0,0.1106 -0.038,0.2035 -0.1137,0.2795c-0.076,0.0757 -0.1726,0.1137 -0.2897,0.1137c-0.1173,0 -0.2137,-0.0363 -0.2897,-0.1086c-0.076,-0.0726 -0.1137,-0.1672 -0.1137,-0.2846l0,-0.6205c-0.2415,0.3311 -0.5482,0.5913 -0.9207,0.7809c-0.3724,0.1897 -0.7826,0.2844 -1.2308,0.2844c-0.5241,0 -0.9983,-0.1259 -1.4224,-0.3773c-0.424,-0.2517 -0.7585,-0.5967 -1.0034,-1.0347c-0.2447,-0.4376 -0.3671,-0.9258 -0.3671,-1.4635c0,-0.538 0.1258,-1.0276 0.3775,-1.4689c0.2518,-0.4414 0.5965,-0.7878 1.0344,-1.0395c0.438,-0.2517 0.9258,-0.3776 1.4635,-0.3776zm0,5.0375c0.3932,0 0.7484,-0.093 1.0656,-0.2792c0.3172,-0.1863 0.5672,-0.4431 0.75,-0.7708c0.1826,-0.3274 0.2741,-0.6947 0.2741,-1.1015c0,-0.4068 -0.0915,-0.7741 -0.2741,-1.1015c-0.1828,-0.3277 -0.4328,-0.5863 -0.75,-0.7759c-0.3172,-0.1896 -0.6724,-0.2846 -1.0656,-0.2846c-0.3929,0 -0.7497,0.095 -1.0703,0.2846c-0.3209,0.1896 -0.5726,0.4482 -0.7552,0.7759c-0.1828,0.3274 -0.2741,0.6947 -0.2741,1.1015c0,0.4068 0.0913,0.7741 0.2741,1.1015c0.1826,0.3277 0.4343,0.5845 0.7552,0.7708c0.3206,0.1862 0.6774,0.2792 1.0703,0.2792zm6.1546,0.724c-0.4068,0 -0.7721,-0.0618 -1.0964,-0.186c-0.324,-0.1241 -0.5808,-0.3019 -0.7705,-0.5329c-0.1896,-0.231 -0.2846,-0.4981 -0.2846,-0.8016c0,-0.4068 0.169,-0.7498 0.5069,-1.0293c0.3378,-0.2792 0.8793,-0.498 1.6239,-0.6568c0.4482,-0.1035 0.7637,-0.2344 0.9465,-0.3929c0.1828,-0.1587 0.2741,-0.3656 0.2741,-0.6208c0,-0.2483 -0.1051,-0.4481 -0.3155,-0.5998c-0.2103,-0.1519 -0.4946,-0.2276 -0.8532,-0.2276c-0.2897,0 -0.557,0.0499 -0.8016,0.15c-0.245,0.1 -0.4468,0.2432 -0.6052,0.4291c-0.1103,0.1106 -0.2277,0.1656 -0.3518,0.1656c-0.0689,0 -0.1208,-0.0136 -0.1551,-0.0414c-0.138,-0.0757 -0.2069,-0.1792 -0.2069,-0.3101c0,-0.0692 0.0275,-0.1381 0.0828,-0.207c0.2069,-0.2758 0.4844,-0.4949 0.8325,-0.6567c0.3484,-0.1622 0.7466,-0.2433 1.1948,-0.2433c0.5862,0 1.0585,0.1361 1.417,0.4085c0.3586,0.2724 0.5381,0.6605 0.5381,1.1639c0,0.3722 -0.1449,0.6965 -0.4346,0.9723c-0.2894,0.2758 -0.7412,0.4827 -1.3549,0.6205c-0.5724,0.1242 -0.9723,0.269 -1.2,0.4346c-0.2276,0.1655 -0.3412,0.3758 -0.3412,0.631c0,0.269 0.1085,0.4705 0.3257,0.6051c0.2174,0.1344 0.5536,0.2016 1.0085,0.2016c0.745,0 1.2793,-0.1862 1.6033,-0.5584c0.0899,-0.1035 0.193,-0.1554 0.3104,-0.1554c0.076,0 0.1516,0.0278 0.2276,0.0828c0.0964,0.0828 0.1449,0.1757 0.1449,0.2792c0,0.0967 -0.0346,0.1794 -0.1035,0.2483c-0.2276,0.2551 -0.5414,0.457 -0.9414,0.6052c-0.4,0.1483 -0.8067,0.2223 -1.2206,0.2223zm5.9477,-5.7615c0.538,0 1.0258,0.1259 1.4638,0.3776c0.4379,0.2517 0.7826,0.5981 1.0343,1.0395c0.2518,0.4413 0.3776,0.9309 0.3776,1.4689l0,2.4307c0,0.1106 -0.038,0.2035 -0.1137,0.2795c-0.0759,0.0757 -0.1726,0.1137 -0.2897,0.1137c-0.1173,0 -0.2137,-0.0363 -0.2897,-0.1086c-0.0759,-0.0726 -0.1136,-0.1672 -0.1136,-0.2846l0,-0.6205c-0.2415,0.3311 -0.5482,0.5913 -0.9207,0.7809c-0.3725,0.1897 -0.7827,0.2844 -1.2308,0.2844c-0.5241,0 -0.9984,-0.1259 -1.4224,-0.3773c-0.4241,-0.2517 -0.7586,-0.5967 -1.0035,-1.0347c-0.2446,-0.4376 -0.3671,-0.9258 -0.3671,-1.4635c0,-0.538 0.1259,-1.0276 0.3776,-1.4689c0.2517,-0.4414 0.5964,-0.7878 1.0343,-1.0395c0.438,-0.2517 0.9258,-0.3776 1.4636,-0.3776zm0,5.0375c0.3931,0 0.7483,-0.093 1.0655,-0.2792c0.3172,-0.1863 0.5672,-0.4431 0.7501,-0.7708c0.1825,-0.3274 0.2741,-0.6947 0.2741,-1.1015c0,-0.4068 -0.0916,-0.7741 -0.2741,-1.1015c-0.1829,-0.3277 -0.4329,-0.5863 -0.7501,-0.7759c-0.3172,-0.1896 -0.6724,-0.2846 -1.0655,-0.2846c-0.3929,0 -0.7498,0.095 -1.0704,0.2846c-0.3209,0.1896 -0.5726,0.4482 -0.7551,0.7759c-0.1829,0.3274 -0.2742,0.6947 -0.2742,1.1015c0,0.4068 0.0913,0.7741 0.2742,1.1015c0.1825,0.3277 0.4342,0.5845 0.7551,0.7708c0.3206,0.1862 0.6775,0.2792 1.0704,0.2792zm7.2096,-2.317c0.3518,0.0759 0.6361,0.2395 0.8535,0.4912c0.2172,0.2517 0.3257,0.5502 0.3257,0.8949c0,0.3172 -0.0947,0.6052 -0.2843,0.8637c-0.1896,0.2585 -0.4501,0.4621 -0.7809,0.6103c-0.3311,0.1483 -0.7002,0.2222 -1.107,0.2222c-0.4413,0 -0.862,-0.0878 -1.262,-0.2636c-0.3999,-0.1757 -0.7032,-0.3948 -0.9102,-0.6568c-0.0552,-0.062 -0.0827,-0.138 -0.0827,-0.2276c0,-0.138 0.062,-0.2415 0.1862,-0.3104c0.0482,-0.0275 0.1069,-0.0414 0.1758,-0.0414c0.1448,0 0.2656,0.0519 0.3619,0.1554c0.1795,0.1859 0.402,0.3362 0.6673,0.4498c0.2656,0.1137 0.5499,0.1707 0.8535,0.1707c0.4136,0 0.7498,-0.0879 1.0086,-0.2636c0.2585,-0.1761 0.3878,-0.419 0.3878,-0.7294c0,-0.2758 -0.1001,-0.5068 -0.2999,-0.6931c-0.2002,-0.1862 -0.4553,-0.2863 -0.7657,-0.2999l-0.5275,0c-0.131,0 -0.2378,-0.0329 -0.3206,-0.0983c-0.0828,-0.0655 -0.1242,-0.1466 -0.1242,-0.243c0,-0.0966 0.0414,-0.176 0.1242,-0.2381c0.0828,-0.0621 0.1896,-0.093 0.3206,-0.093l0.5275,0c0.2551,-0.007 0.4621,-0.0912 0.6208,-0.2534c0.1585,-0.1621 0.2378,-0.3673 0.2378,-0.6154c0,-0.2483 -0.1102,-0.4518 -0.331,-0.6103c-0.2206,-0.1587 -0.5103,-0.2381 -0.8689,-0.2381c-0.6205,0 -1.0859,0.1967 -1.3963,0.5896c-0.0896,0.1035 -0.2001,0.1554 -0.3311,0.1554c-0.0689,0 -0.1414,-0.0207 -0.2171,-0.0621c-0.1035,-0.0621 -0.1554,-0.1517 -0.1554,-0.269c0,-0.0828 0.0312,-0.1656 0.0933,-0.2483c0.2276,-0.269 0.5136,-0.4862 0.8586,-0.6517c0.3447,-0.1656 0.724,-0.2483 1.1378,-0.2483c0.3722,0 0.7118,0.0674 1.0188,0.2018c0.307,0.1344 0.5465,0.3172 0.7189,0.5482c0.1723,0.231 0.2585,0.4879 0.2585,0.7708c0,0.2826 -0.0896,0.5343 -0.2687,0.7551c-0.1795,0.2205 -0.4139,0.3793 -0.7036,0.4757zm7.2717,-2.6689c0.1174,0 0.2138,0.0363 0.2897,0.1089c0.0757,0.0723 0.1137,0.1672 0.1137,0.2843l0,4.8617c0,0.1171 -0.038,0.2137 -0.1137,0.2897c-0.0759,0.0757 -0.1723,0.1137 -0.2897,0.1137c-0.117,0 -0.212,-0.038 -0.2843,-0.1137c-0.0726,-0.076 -0.1088,-0.1726 -0.1088,-0.2897l0,-0.3518c-0.2274,0.2551 -0.5032,0.4553 -0.8275,0.6001c-0.324,0.1449 -0.6758,0.2171 -1.055,0.2171c-0.4896,0 -0.9292,-0.1034 -1.319,-0.3103c-0.3895,-0.207 -0.6948,-0.5086 -0.9153,-0.9051c-0.2205,-0.3966 -0.3311,-0.8706 -0.3311,-1.4222l0,-2.6895c0,-0.1103 0.038,-0.2035 0.114,-0.2792c0.0757,-0.076 0.1689,-0.114 0.2792,-0.114c0.1173,0 0.2137,0.038 0.2897,0.114c0.0757,0.0757 0.1136,0.1689 0.1136,0.2792l0,2.6895c0,0.6137 0.1707,1.0809 0.512,1.4015c0.3416,0.3206 0.788,0.481 1.3396,0.481c0.3379,0 0.6429,-0.0655 0.9153,-0.1964c0.2725,-0.131 0.4882,-0.3121 0.6466,-0.5432c0.1588,-0.231 0.2379,-0.4878 0.2379,-0.7707l0,-3.0617c0,-0.1171 0.0362,-0.212 0.1088,-0.2843c0.0723,-0.0726 0.1673,-0.1089 0.2843,-0.1089zm7.1062,0c0.1173,0 0.2103,0.038 0.2792,0.114c0.0692,0.0757 0.1035,0.1723 0.1035,0.2897l0,4.8512c0,0.1171 -0.0343,0.2137 -0.1035,0.2897c-0.0689,0.0757 -0.1619,0.1137 -0.2792,0.1137c-0.1174,0 -0.2137,-0.038 -0.2897,-0.1137c-0.0757,-0.076 -0.1137,-0.1726 -0.1137,-0.2897l0,-2.0894l-3.6513,0l0,2.0894c0,0.1171 -0.0363,0.2137 -0.1088,0.2897c-0.0723,0.0757 -0.1673,0.1137 -0.2843,0.1137c-0.1174,0 -0.2121,-0.038 -0.2846,-0.1137c-0.0723,-0.076 -0.1086,-0.1726 -0.1086,-0.2897l0,-4.8512c0,-0.1174 0.0363,-0.214 0.1086,-0.2897c0.0725,-0.076 0.1672,-0.114 0.2846,-0.114c0.117,0 0.212,0.038 0.2843,0.114c0.0725,0.0757 0.1088,0.1723 0.1088,0.2897l0,2.048l3.6513,0l0,-2.048c0,-0.1174 0.038,-0.214 0.1137,-0.2897c0.076,-0.076 0.1723,-0.114 0.2897,-0.114zm7.8508,-0.0516c0.5519,0 1.0449,0.1225 1.4794,0.3671c0.4343,0.2449 0.7756,0.5862 1.0239,1.0242c0.2483,0.4379 0.3725,0.936 0.3725,1.4947l0,2.1101c0,0.5516 -0.1225,1.0517 -0.3671,1.4998c-0.2449,0.4485 -0.5845,0.8017 -1.0191,1.0605c-0.4342,0.2585 -0.9241,0.3877 -1.4689,0.3877c-0.5309,0 -1.0032,-0.1 -1.417,-0.2999c-0.4136,-0.2001 -0.762,-0.4793 -1.0446,-0.8379c-0.0621,-0.0689 -0.0932,-0.1482 -0.0932,-0.2378c0,-0.1035 0.0481,-0.1931 0.1448,-0.269c0.0689,-0.0482 0.1449,-0.0723 0.2276,-0.0723c0.0621,0 0.1242,0.0153 0.1863,0.0465c0.062,0.0309 0.1102,0.0706 0.1448,0.1188c0.2067,0.2622 0.4689,0.4657 0.7861,0.6103c0.3172,0.1448 0.6757,0.2174 1.0757,0.2174c0.3861,0 0.7362,-0.095 1.05,-0.2846c0.3138,-0.1897 0.5601,-0.455 0.7395,-0.7966c0.1792,-0.3413 0.269,-0.7324 0.269,-1.1738l0,-0.4654c-0.2069,0.3928 -0.5,0.7015 -0.8793,0.9255c-0.3793,0.2242 -0.8104,0.3362 -1.2929,0.3362c-0.538,0 -1.019,-0.1222 -1.4431,-0.3671c-0.424,-0.2449 -0.7551,-0.5862 -0.993,-1.0242c-0.2378,-0.4377 -0.3568,-0.9326 -0.3568,-1.4842c0,-0.5587 0.1241,-1.0568 0.3724,-1.4947c0.2481,-0.438 0.5913,-0.7793 1.029,-1.0242c0.438,-0.2446 0.9295,-0.3671 1.474,-0.3671zm0,5.0375c0.4,0 0.7586,-0.0913 1.0761,-0.2741c0.3172,-0.1829 0.5652,-0.438 0.7446,-0.7654c0.1792,-0.3277 0.269,-0.6981 0.269,-1.112c0,-0.4139 -0.0898,-0.7843 -0.269,-1.112c-0.1794,-0.3274 -0.4274,-0.5845 -0.7446,-0.7705c-0.3175,-0.1862 -0.6761,-0.2795 -1.0761,-0.2795c-0.4067,0 -0.7687,0.0933 -1.0859,0.2795c-0.3172,0.186 -0.5655,0.4431 -0.7447,0.7705c-0.1794,0.3277 -0.269,0.6981 -0.269,1.112c0,0.4139 0.0896,0.7843 0.269,1.112c0.1792,0.3274 0.4275,0.5825 0.7447,0.7654c0.3172,0.1828 0.6792,0.2741 1.0859,0.2741zm7.0027,0.724c-0.5445,0 -1.036,-0.1239 -1.474,-0.3722c-0.4376,-0.2483 -0.7809,-0.5913 -1.029,-1.0293c-0.2483,-0.4379 -0.3724,-0.9292 -0.3724,-1.474c0,-0.5448 0.1241,-1.0378 0.3724,-1.4791c0.2481,-0.4414 0.5914,-0.7864 1.029,-1.0344c0.438,-0.2483 0.9295,-0.3725 1.474,-0.3725c0.5449,0 1.0347,0.1242 1.469,0.3725c0.4345,0.248 0.7775,0.593 1.0292,1.0344c0.2517,0.4413 0.3776,0.9343 0.3776,1.4791c0,0.5448 -0.1242,1.0361 -0.3725,1.474c-0.2483,0.438 -0.5913,0.781 -1.0292,1.0293c-0.4377,0.2483 -0.9292,0.3722 -1.4741,0.3722zm0,-0.724c0.4,0 0.7586,-0.093 1.0761,-0.2792c0.3172,-0.1863 0.5652,-0.4431 0.7446,-0.7708c0.1792,-0.3274 0.269,-0.6947 0.269,-1.1015c0,-0.4139 -0.0898,-0.7843 -0.269,-1.112c-0.1794,-0.3274 -0.4274,-0.5845 -0.7446,-0.7705c-0.3175,-0.1862 -0.6761,-0.2795 -1.0761,-0.2795c-0.3928,0 -0.7497,0.0933 -1.0703,0.2795c-0.3209,0.186 -0.5726,0.4431 -0.7552,0.7705c-0.1828,0.3277 -0.2741,0.6981 -0.2741,1.112c0,0.4068 0.0913,0.7741 0.2741,1.1015c0.1826,0.3277 0.4343,0.5845 0.7552,0.7708c0.3206,0.1862 0.6775,0.2792 1.0703,0.2792zm10.2717,-4.9859c0.1238,0 0.2222,0.0346 0.2948,0.1035c0.0722,0.0692 0.1085,0.1689 0.1085,0.3002l0,4.8512c0,0.1242 -0.0363,0.2222 -0.1085,0.2948c-0.0726,0.0723 -0.171,0.1086 -0.2948,0.1086c-0.1242,0 -0.2209,-0.0363 -0.2897,-0.1086c-0.0689,-0.0726 -0.1035,-0.1706 -0.1035,-0.2948l0,-3.8789l-1.9551,2.8238c-0.1034,0.1517 -0.231,0.2277 -0.3826,0.2277c-0.1449,0 -0.269,-0.076 -0.3725,-0.2277l-1.9446,-2.7824l0,3.8375c0,0.1242 -0.0346,0.2222 -0.1034,0.2948c-0.0689,0.0723 -0.1656,0.1086 -0.2897,0.1086c-0.1242,0 -0.2223,-0.0363 -0.2948,-0.1086c-0.0723,-0.0726 -0.1086,-0.1706 -0.1086,-0.2948l0,-4.8512c0,-0.1313 0.0363,-0.231 0.1086,-0.3002c0.0725,-0.0689 0.1706,-0.1035 0.2948,-0.1035c0.1794,0 0.3242,0.0828 0.4345,0.2483l2.2859,3.3101l2.2861,-3.3101c0.1174,-0.1655 0.2619,-0.2483 0.4346,-0.2483zm4.8407,-0.0516c0.538,0 1.0258,0.1259 1.4638,0.3776c0.4379,0.2517 0.7826,0.5981 1.0344,1.0395c0.2517,0.4413 0.3775,0.9309 0.3775,1.4689l0,2.4307c0,0.1106 -0.038,0.2035 -0.1136,0.2795c-0.076,0.0757 -0.1727,0.1137 -0.2897,0.1137c-0.1174,0 -0.2138,-0.0363 -0.2897,-0.1086c-0.076,-0.0726 -0.1137,-0.1672 -0.1137,-0.2846l0,-0.6205c-0.2415,0.3311 -0.5482,0.5913 -0.9207,0.7809c-0.3725,0.1897 -0.7826,0.2844 -1.2308,0.2844c-0.5241,0 -0.9984,-0.1259 -1.4224,-0.3773c-0.4241,-0.2517 -0.7586,-0.5967 -1.0035,-1.0347c-0.2446,-0.4376 -0.3671,-0.9258 -0.3671,-1.4635c0,-0.538 0.1259,-1.0276 0.3776,-1.4689c0.2517,-0.4414 0.5964,-0.7878 1.0344,-1.0395c0.4379,-0.2517 0.9258,-0.3776 1.4635,-0.3776zm0,5.0375c0.3932,0 0.7483,-0.093 1.0655,-0.2792c0.3172,-0.1863 0.5672,-0.4431 0.7501,-0.7708c0.1825,-0.3274 0.2741,-0.6947 0.2741,-1.1015c0,-0.4068 -0.0916,-0.7741 -0.2741,-1.1015c-0.1829,-0.3277 -0.4329,-0.5863 -0.7501,-0.7759c-0.3172,-0.1896 -0.6723,-0.2846 -1.0655,-0.2846c-0.3929,0 -0.7498,0.095 -1.0704,0.2846c-0.3209,0.1896 -0.5726,0.4482 -0.7551,0.7759c-0.1829,0.3274 -0.2741,0.6947 -0.2741,1.1015c0,0.4068 0.0912,0.7741 0.2741,1.1015c0.1825,0.3277 0.4342,0.5845 0.7551,0.7708c0.3206,0.1862 0.6775,0.2792 1.0704,0.2792zm11.9577,-4.9859c0.117,0 0.2137,0.038 0.2894,0.114c0.0759,0.0757 0.1139,0.1723 0.1139,0.2897l0,4.8512c0,0.1171 -0.038,0.2137 -0.1139,0.2897c-0.0757,0.0757 -0.1724,0.1137 -0.2894,0.1137c-0.1174,0 -0.2121,-0.038 -0.2846,-0.1137c-0.0723,-0.076 -0.1086,-0.1726 -0.1086,-0.2897l0,-0.362c-0.1794,0.2687 -0.4017,0.4757 -0.6673,0.6205c-0.2653,0.1449 -0.5601,0.2172 -0.8844,0.2172c-0.4275,0 -0.805,-0.1086 -1.1324,-0.3257c-0.3277,-0.2172 -0.5709,-0.5191 -0.7294,-0.9051c-0.1587,0.386 -0.3915,0.6879 -0.6982,0.9051c-0.307,0.2171 -0.6568,0.3257 -1.0499,0.3257c-0.4068,0 -0.7671,-0.0964 -1.0809,-0.2895c-0.3138,-0.193 -0.5587,-0.4671 -0.7344,-0.8223c-0.1761,-0.3552 -0.2639,-0.7673 -0.2639,-1.2362l0,-2.9789c0,-0.1174 0.0363,-0.214 0.1085,-0.2897c0.0726,-0.076 0.1673,-0.114 0.2846,-0.114c0.1174,0 0.2138,0.038 0.2897,0.114c0.0757,0.0757 0.1137,0.1723 0.1137,0.2897l0,2.9789c0,0.4828 0.1259,0.8671 0.3776,1.1534c0.2517,0.2861 0.5811,0.4292 0.9879,0.4292c0.4345,0 0.786,-0.1431 1.055,-0.4292c0.269,-0.2863 0.4,-0.6604 0.3932,-1.1225l0,-0.0309l0,-2.9789c0,-0.1174 0.036,-0.214 0.1085,-0.2897c0.0723,-0.076 0.1673,-0.114 0.2844,-0.114c0.1173,0 0.2137,0.038 0.2897,0.114c0.0759,0.0757 0.1136,0.1723 0.1136,0.2897l0,2.9789c0,0.4828 0.1259,0.8671 0.3776,1.1534c0.2517,0.2861 0.5811,0.4292 0.9879,0.4292c0.4277,0 0.7792,-0.1397 1.055,-0.419c0.2758,-0.2792 0.4139,-0.6361 0.4139,-1.0706l0,-3.0719c0,-0.1174 0.0363,-0.214 0.1086,-0.2897c0.0725,-0.076 0.1672,-0.114 0.2846,-0.114zm7.1061,0c0.1174,0 0.2104,0.038 0.2792,0.114c0.0692,0.0757 0.1035,0.1723 0.1035,0.2897l0,4.8512c0,0.1171 -0.0343,0.2137 -0.1035,0.2897c-0.0688,0.0757 -0.1618,0.1137 -0.2792,0.1137c-0.1173,0 -0.2137,-0.038 -0.2897,-0.1137c-0.0757,-0.076 -0.1136,-0.1726 -0.1136,-0.2897l0,-2.0894l-3.6513,0l0,2.0894c0,0.1171 -0.0363,0.2137 -0.1089,0.2897c-0.0723,0.0757 -0.1672,0.1137 -0.2843,0.1137c-0.1174,0 -0.212,-0.038 -0.2846,-0.1137c-0.0723,-0.076 -0.1086,-0.1726 -0.1086,-0.2897l0,-4.8512c0,-0.1174 0.0363,-0.214 0.1086,-0.2897c0.0726,-0.076 0.1672,-0.114 0.2846,-0.114c0.1171,0 0.212,0.038 0.2843,0.114c0.0726,0.0757 0.1089,0.1723 0.1089,0.2897l0,2.048l3.6513,0l0,-2.048c0,-0.1174 0.0379,-0.214 0.1136,-0.2897c0.076,-0.076 0.1724,-0.114 0.2897,-0.114zm4.6548,-0.0516c0.5102,0 0.9618,0.1191 1.355,0.3569c0.3931,0.2379 0.6981,0.5672 0.9153,0.9879c0.2174,0.4207 0.326,0.9 0.326,1.4377c0,0.1103 -0.0346,0.1982 -0.1035,0.2639c-0.0689,0.0655 -0.1588,0.0981 -0.269,0.0981l-4.1789,0c0.055,0.5655 0.2759,1.0242 0.6619,1.376c0.3864,0.3514 0.8689,0.5275 1.4483,0.5275c0.2483,0 0.4983,-0.0431 0.75,-0.1296c0.2517,-0.0861 0.4533,-0.1947 0.6049,-0.3257c0.0899,-0.0688 0.1828,-0.1034 0.2795,-0.1034c0.0757,0 0.1517,0.0275 0.2273,0.0827c0.0899,0.0828 0.1347,0.1758 0.1347,0.2793c0,0.0898 -0.038,0.1689 -0.114,0.2381c-0.2273,0.193 -0.517,0.3532 -0.8688,0.4807c-0.3518,0.1276 -0.6896,0.1914 -1.0136,0.1914c-0.5517,0 -1.0449,-0.1222 -1.4792,-0.3671c-0.4345,-0.2449 -0.7741,-0.5862 -1.019,-1.0242c-0.2446,-0.4377 -0.3671,-0.9326 -0.3671,-1.4842c0,-0.5587 0.1154,-1.0568 0.3464,-1.4947c0.231,-0.438 0.5519,-0.7793 0.9621,-1.0242c0.4104,-0.2446 0.8776,-0.3671 1.4017,-0.3671zm0,0.7138c-0.5241,0 -0.9587,0.1621 -1.3034,0.4861c-0.3449,0.324 -0.5553,0.7518 -0.631,1.2827l3.7857,0c-0.055,-0.5309 -0.248,-0.9587 -0.5791,-1.2827c-0.3311,-0.324 -0.7552,-0.4861 -1.2722,-0.4861zm5.6682,5.0477c-0.4068,0 -0.7722,-0.0618 -1.0965,-0.186c-0.324,-0.1241 -0.5808,-0.3019 -0.7704,-0.5329c-0.1897,-0.231 -0.2846,-0.4981 -0.2846,-0.8016c0,-0.4068 0.1689,-0.7498 0.5068,-1.0293c0.3379,-0.2792 0.8793,-0.498 1.624,-0.6568c0.4481,-0.1035 0.7636,-0.2344 0.9465,-0.3929c0.1828,-0.1587 0.2741,-0.3656 0.2741,-0.6208c0,-0.2483 -0.1052,-0.4481 -0.3155,-0.5998c-0.2104,-0.1519 -0.4947,-0.2276 -0.8533,-0.2276c-0.2897,0 -0.557,0.0499 -0.8016,0.15c-0.2449,0.1 -0.4467,0.2432 -0.6052,0.4291c-0.1103,0.1106 -0.2276,0.1656 -0.3518,0.1656c-0.0689,0 -0.1207,-0.0136 -0.155,-0.0414c-0.1381,-0.0757 -0.207,-0.1792 -0.207,-0.3101c0,-0.0692 0.0275,-0.1381 0.0828,-0.207c0.2069,-0.2758 0.4845,-0.4949 0.8325,-0.6567c0.3484,-0.1622 0.7467,-0.2433 1.1948,-0.2433c0.5863,0 1.0585,0.1361 1.4171,0.4085c0.3586,0.2724 0.538,0.6605 0.538,1.1639c0,0.3722 -0.1448,0.6965 -0.4345,0.9723c-0.2895,0.2758 -0.7413,0.4827 -1.355,0.6205c-0.5723,0.1242 -0.9723,0.269 -1.1999,0.4346c-0.2276,0.1655 -0.3413,0.3758 -0.3413,0.631c0,0.269 0.1086,0.4705 0.3257,0.6051c0.2174,0.1344 0.5536,0.2016 1.0086,0.2016c0.7449,0 1.2792,-0.1862 1.6032,-0.5584c0.0899,-0.1035 0.1931,-0.1554 0.3104,-0.1554c0.076,0 0.1517,0.0278 0.2277,0.0828c0.0963,0.0828 0.1448,0.1757 0.1448,0.2792c0,0.0967 -0.0346,0.1794 -0.1035,0.2483c-0.2276,0.2551 -0.5414,0.457 -0.9413,0.6052c-0.4,0.1483 -0.8068,0.2223 -1.2206,0.2223zm5.9476,0c-0.5445,0 -1.0361,-0.1239 -1.474,-0.3722c-0.4377,-0.2483 -0.781,-0.5913 -1.029,-1.0293c-0.2483,-0.4379 -0.3725,-0.9292 -0.3725,-1.474c0,-0.5448 0.1242,-1.0378 0.3725,-1.4791c0.248,-0.4414 0.5913,-0.7864 1.029,-1.0344c0.4379,-0.2483 0.9295,-0.3725 1.474,-0.3725c0.5448,0 1.0347,0.1242 1.4689,0.3725c0.4346,0.248 0.7776,0.593 1.0293,1.0344c0.2517,0.4413 0.3776,0.9343 0.3776,1.4791c0,0.5448 -0.1242,1.0361 -0.3725,1.474c-0.2483,0.438 -0.5913,0.781 -1.0293,1.0293c-0.4376,0.2483 -0.9292,0.3722 -1.474,0.3722zm0,-0.724c0.4,0 0.7586,-0.093 1.076,-0.2792c0.3172,-0.1863 0.5653,-0.4431 0.7447,-0.7708c0.1792,-0.3274 0.269,-0.6947 0.269,-1.1015c0,-0.4139 -0.0898,-0.7843 -0.269,-1.112c-0.1794,-0.3274 -0.4275,-0.5845 -0.7447,-0.7705c-0.3174,-0.1862 -0.676,-0.2795 -1.076,-0.2795c-0.3929,0 -0.7498,0.0933 -1.0704,0.2795c-0.3208,0.186 -0.5726,0.4431 -0.7551,0.7705c-0.1828,0.3277 -0.2741,0.6981 -0.2741,1.112c0,0.4068 0.0913,0.7741 0.2741,1.1015c0.1825,0.3277 0.4343,0.5845 0.7551,0.7708c0.3206,0.1862 0.6775,0.2792 1.0704,0.2792zm11.761,-4.9652c0.1448,0.0692 0.2174,0.1761 0.2174,0.3209c0,0.0482 -0.0173,0.1137 -0.0519,0.1965l-2.5858,5.9374c-0.2276,0.517 -0.5139,0.9224 -0.8586,1.2152c-0.345,0.2931 -0.7171,0.4397 -1.1171,0.4397c-0.2622,0 -0.5414,-0.0828 -0.8379,-0.2481c-0.0689,-0.0414 -0.1242,-0.0932 -0.1656,-0.1553c-0.0414,-0.0621 -0.0621,-0.1242 -0.0621,-0.1862c0,-0.0757 0.0278,-0.1517 0.0828,-0.2274c0.0828,-0.0966 0.1794,-0.1448 0.2897,-0.1448c0.0896,0 0.1829,0.0275 0.2792,0.0827c0.1517,0.0896 0.3138,0.1344 0.4862,0.1344c0.2344,-0.007 0.4552,-0.1137 0.6621,-0.3206c0.2067,-0.2069 0.3963,-0.5068 0.569,-0.9l0.3826,-0.8895l-2.2861,-4.748c-0.0275,-0.055 -0.0414,-0.1171 -0.0414,-0.186c0,-0.1448 0.076,-0.2483 0.2276,-0.3104c0.0553,-0.0275 0.114,-0.0414 0.1758,-0.0414c0.1448,0 0.2517,0.0723 0.3209,0.2172l1.9961,4.1686l1.8,-4.1581c0.0828,-0.1588 0.1965,-0.2382 0.3413,-0.2382c0.0346,0 0.0933,0.0139 0.1758,0.0414zm6.2997,-0.0723c0.5445,0 1.0343,0.1242 1.4686,0.3725c0.4346,0.248 0.7775,0.593 1.0293,1.0344c0.2517,0.4413 0.3775,0.9343 0.3775,1.4791c0,0.5448 -0.1241,1.0361 -0.3724,1.474c-0.2481,0.438 -0.5913,0.781 -1.0293,1.0293c-0.4377,0.2483 -0.9292,0.3722 -1.4737,0.3722c-0.5105,0 -0.9726,-0.1086 -1.3862,-0.3257c-0.4138,-0.2172 -0.75,-0.5174 -1.0085,-0.9c-0.2586,-0.3827 -0.4122,-0.819 -0.4604,-1.3085l-1.1585,0l0,2.0894c0,0.1174 -0.0363,0.212 -0.1086,0.2846c-0.0725,0.0723 -0.1672,0.1086 -0.2846,0.1086c-0.117,0 -0.2137,-0.0363 -0.2894,-0.1086c-0.076,-0.0726 -0.1139,-0.1672 -0.1139,-0.2846l0,-4.8614c0,-0.1174 0.0379,-0.214 0.1139,-0.2897c0.0757,-0.076 0.1724,-0.114 0.2894,-0.114c0.1174,0 0.2121,0.038 0.2846,0.114c0.0723,0.0757 0.1086,0.1723 0.1086,0.2897l0,2.048l1.1585,0c0.0553,-0.4827 0.212,-0.9139 0.4706,-1.2931c0.2588,-0.3793 0.595,-0.6758 1.0085,-0.8896c0.4139,-0.2137 0.8725,-0.3206 1.376,-0.3206zm0,5.0375c0.3997,0 0.7585,-0.093 1.0757,-0.2792c0.3172,-0.1863 0.5652,-0.4431 0.7447,-0.7708c0.1791,-0.3274 0.269,-0.6947 0.269,-1.1015c0,-0.4139 -0.0899,-0.7843 -0.269,-1.112c-0.1795,-0.3274 -0.4275,-0.5845 -0.7447,-0.7705c-0.3172,-0.1862 -0.676,-0.2795 -1.0757,-0.2795c-0.3932,0 -0.7501,0.0933 -1.0707,0.2795c-0.3209,0.186 -0.5723,0.4431 -0.7551,0.7705c-0.1829,0.3277 -0.2741,0.6981 -0.2741,1.112c0,0.4068 0.0912,0.7741 0.2741,1.1015c0.1828,0.3277 0.4342,0.5845 0.7551,0.7708c0.3206,0.1862 0.6775,0.2792 1.0707,0.2792zm10.3955,-5.0479c0.4067,0 0.767,0.0966 1.0808,0.2897c0.3138,0.193 0.5587,0.4671 0.7345,0.8223c0.176,0.3552 0.2639,0.7673 0.2639,1.2362l0,2.9789c0,0.1174 -0.0363,0.212 -0.1086,0.2846c-0.0726,0.0723 -0.1672,0.1086 -0.2846,0.1086c-0.1173,0 -0.2137,-0.0363 -0.2897,-0.1086c-0.0757,-0.0726 -0.1137,-0.1672 -0.1137,-0.2846l0,-2.9789c0,-0.4896 -0.1258,-0.8776 -0.3775,-1.1636c-0.2517,-0.2863 -0.5811,-0.4295 -0.9879,-0.4295c-0.4346,0 -0.7861,0.1449 -1.0551,0.4346c-0.269,0.2897 -0.3999,0.6689 -0.3931,1.1378l0,0.0207l0,2.9789c0,0.1174 -0.036,0.212 -0.1086,0.2846c-0.0723,0.0723 -0.1672,0.1086 -0.2843,0.1086c-0.1174,0 -0.2137,-0.0363 -0.2897,-0.1086c-0.076,-0.0726 -0.1137,-0.1672 -0.1137,-0.2846l0,-2.9789c0,-0.4896 -0.1258,-0.8776 -0.3776,-1.1636c-0.2517,-0.2863 -0.5811,-0.4295 -0.9878,-0.4295c-0.4278,0 -0.7793,0.1415 -1.0551,0.4241c-0.2758,0.2829 -0.4138,0.6449 -0.4138,1.0862l0,3.0617c0,0.1174 -0.0363,0.212 -0.1086,0.2846c-0.0726,0.0723 -0.1672,0.1086 -0.2846,0.1086c-0.1171,0 -0.2137,-0.0363 -0.2894,-0.1086c-0.076,-0.0726 -0.114,-0.1672 -0.114,-0.2846l0,-4.8614c0,-0.1174 0.038,-0.214 0.114,-0.2897c0.0757,-0.076 0.1723,-0.114 0.2894,-0.114c0.1174,0 0.212,0.038 0.2846,0.114c0.0723,0.0757 0.1086,0.1723 0.1086,0.2897l0,0.2273c0.193,-0.2205 0.4223,-0.3912 0.6879,-0.5119c0.2654,-0.1208 0.5534,-0.1811 0.8637,-0.1811c0.3793,0 0.7206,0.0864 1.0239,0.2588c0.3036,0.1723 0.5448,0.4135 0.7243,0.7239c0.1998,-0.3104 0.46,-0.5516 0.7809,-0.7239c0.3206,-0.1724 0.6809,-0.2588 1.0809,-0.2588z" id="path24"/>
    <path fill="#2f6534" fill-rule="evenodd" stroke="#2f6534" stroke-width="0.216" d="m65.307032,147.852816c0.538,0 1.0258,0.1259 1.4638,0.3776c0.4379,0.2517 0.7826,0.5981 1.0343,1.0395c0.2518,0.4413 0.3776,0.9309 0.3776,1.4689l0,2.4307c0,0.1106 -0.038,0.2035 -0.1137,0.2795c-0.0759,0.0757 -0.1726,0.1137 -0.2897,0.1137c-0.1173,0 -0.2137,-0.0363 -0.2897,-0.1086c-0.0759,-0.0726 -0.1136,-0.1672 -0.1136,-0.2846l0,-0.6205c-0.2415,0.3311 -0.5482,0.5913 -0.9207,0.7809c-0.3725,0.1897 -0.7827,0.2844 -1.2308,0.2844c-0.5241,0 -0.9984,-0.1259 -1.4224,-0.3773c-0.4241,-0.2517 -0.7586,-0.5967 -1.0035,-1.0347c-0.2446,-0.4376 -0.3671,-0.9258 -0.3671,-1.4635c0,-0.538 0.1259,-1.0276 0.3776,-1.4689c0.2517,-0.4414 0.5964,-0.7878 1.0343,-1.0395c0.438,-0.2517 0.9258,-0.3776 1.4636,-0.3776zm0,5.0375c0.3931,0 0.7483,-0.093 1.0655,-0.2792c0.3172,-0.1863 0.5672,-0.4431 0.7501,-0.7708c0.1825,-0.3274 0.2741,-0.6947 0.2741,-1.1015c0,-0.4068 -0.0916,-0.7741 -0.2741,-1.1015c-0.1829,-0.3277 -0.4329,-0.5863 -0.7501,-0.7759c-0.3172,-0.1896 -0.6724,-0.2846 -1.0655,-0.2846c-0.3929,0 -0.7498,0.095 -1.0704,0.2846c-0.3209,0.1896 -0.5726,0.4482 -0.7551,0.7759c-0.1829,0.3274 -0.2742,0.6947 -0.2742,1.1015c0,0.4068 0.0913,0.7741 0.2742,1.1015c0.1825,0.3277 0.4342,0.5845 0.7551,0.7708c0.3206,0.1862 0.6775,0.2792 1.0704,0.2792z" id="path26"/>
   </g>
   <path fill="#acc516" fill-rule="evenodd" stroke-width="0.264583" d="m33.27439,23.08466c-0.29585,0.85934 -1.1321,1.84809 -1.82634,2.16038c-1.38959,0.62492 -2.91803,-0.37449 -3.0844,-0.435c1.38475,-0.54912 2.70179,0.74655 4.91074,-1.72538z" id="path54"/>
  </g>
 </g>
</svg>