<svg xmlns="http://www.w3.org/2000/svg" xmlns:xlink="http://www.w3.org/1999/xlink" version="1.1" width="541" height="536">
  <defs id="SvgjsDefs1282"></defs>
  <g id="SvgjsG1291" featurekey="root" fill="#480d72"></g>
  <g id="SvgjsG1292" featurekey="container1" fill="#fbd604"
  transform="matrix(2.5495145805968282,0,0,2.5495145805968282,20,20)">

    <defs xmlns="http://www.w3.org/2000/svg"></defs>
    <g xmlns="http://www.w3.org/2000/svg">
      <path d="M98.254,0C44.077,0,0,44.076,0,98.254s44.077,98.254,98.254,98.254c54.177,0,98.254-44.076,98.254-98.254 S152.431,0,98.254,0z M98.254,195.508C44.628,195.508,1,151.88,1,98.254S44.628,1,98.254,1c53.626,0,97.254,43.628,97.254,97.254 S151.88,195.508,98.254,195.508z">
      </path>
      <path d="M98.254,5.453c-51.171,0-92.801,41.63-92.801,92.801s41.63,92.801,92.801,92.801s92.802-41.63,92.802-92.801 S149.425,5.453,98.254,5.453z">
      </path>
    </g>
  </g>
  <g id="SvgjsG1293" featurekey="symbol1" fill="#480d72"
  transform="matrix(0.12599218654656602,0,0,0.12599218654656602,208.01020672054196,95.93446606850625)">

    <g id="SvgjsG1294">
      <g>
        <g>
          <path d="M371,409c-30.6,0-55.5,24.6-56,55.1c-14.4,7.7-28.5,15-42.8,22c-12.3,6.1-15.5,13.7-15.8,26.5 c-1.5,62.1-3.9,124.2-6,186.3c-0.4,12.7-0.8,25.4-1.4,42.7c-13.2-7.5-21.8-13.5-31.2-17.6c-25.8-11.2-34.5-29.1-31.8-57.7 c4.2-43.6,3.7-87.6,5.3-135.5c-13.7,6.9-23.3,13-33.7,16.7c-20.9,7.4-27,21.3-26.6,43c0.6,38.4-0.9,76.9-3.8,115.1 c-1.6,21.2,3,34.8,23.2,45.1c25.3,13,48.7,29.8,73,44.8c25.3,15.7,50.7,31.3,79.7,49.2c0.5-13.7,0.8-22.5,1-31.2 c2.7-79.2,7.1-158.5,7.1-237.7c0-29.9,6.4-50.5,31.3-62.7c8.4,5,18.2,7.9,28.6,7.9c30.9,0,56-25.1,56-56S401.9,409,371,409z M371,496c-0.2,0-0.3,0-0.4,0h0c-16.9-0.2-30.5-14-30.5-31c0-6.3,1.9-12.1,5.1-17c0,0,0,0,0,0c5.5-8.4,15.1-14,25.9-14h0.1 c2.9,0,5.6,0.4,8.3,1.1c13,3.7,22.6,15.7,22.6,29.9C402,482.1,388.1,496,371,496z">
          </path>
          <path d="M462,307c-11,0-21.2,3.2-29.9,8.7c-10.7-6.9-21.1-13.8-31.5-20.8c-11.3-7.7-19.6-6.8-30.9-0.8 c-54.8,29.2-110.1,57.5-165.3,86.1c-11.3,5.9-22.5,11.7-37.9,19.7c0.1-15.2,1.1-25.6,0.1-35.8c-2.9-27.9,8.4-44.4,34.7-56 c40-17.7,78.1-39.7,120.7-61.8c-12.7-8.6-22.7-13.9-31.1-21.2c-16.7-14.6-31.8-13.1-50.5-2.1c-33.1,19.4-67.4,36.9-102.2,53.1 c-19.2,9-28.9,19.7-28,42.3c1.1,28.5-2.1,57-3.3,85.6c-1.3,29.8-2.4,59.6-3.8,93.6c12.1-6.3,19.9-10.3,27.7-14.4 c70.3-36.5,141.6-71.5,210.6-110.4c24-13.5,43.7-18.4,64.5-6.9v0c1.4,29.6,26,53.3,55.9,53.3c30.9,0,56-25.1,56-56 S492.9,307,462,307z M492.9,365.8c-1.4,15.8-14.7,28.2-30.9,28.2c-8.3,0-15.9-3.3-21.5-8.7c-5.9-5.6-9.5-13.6-9.5-22.3 c0-15.8,11.8-28.8,27.1-30.8c1.3-0.2,2.6-0.3,3.9-0.3c13.7,0,25.4,9,29.5,21.4c1,3,1.5,6.3,1.5,9.6 C493,363.9,493,364.9,492.9,365.8z">
          </path>
        </g>
        <path d="M677,824.7c-67.8-41.2-134.6-83.9-203.7-122.7c-25.9-14.6-40.7-30.1-39.3-57.4c18.8-9,31.8-28.3,31.8-50.5 c0-30.9-25.1-56-56-56s-56,25.1-56,56c0,19.1,9.6,35.9,24.2,46c-0.4,17.7-0.9,34.8-1.8,51.8c-0.7,13.7,4.3,20.3,15.3,26.8 c53.4,31.7,106.3,64.3,159.4,96.5c10.8,6.6,21.7,13.2,36.5,22.2c-13,7.8-22.5,12.3-30.6,18.5c-22.4,17-42.3,15.8-65.9-0.6 c-35.9-25-74.5-46.1-115.5-71c-0.7,15.3-0.1,26.7-2,37.6c-3.8,21.8,5.3,33.9,24.4,44.3c33.7,18.3,66.5,38.5,98.5,59.8 c17.7,11.8,31.8,14.4,50.7,1.9c23.8-15.7,49.9-27.8,74.9-41.6c26.1-14.4,52.2-28.8,82-45.3C692,833.8,684.5,829.2,677,824.7z M409.8,625.1c-16.7,0-30.4-13.3-31-29.9v0c0-0.4,0-0.7,0-1.1c0-0.7,0-1.3,0.1-2c0,0,0-0.1,0-0.1v-0.1c0.5-6.6,3-12.6,6.9-17.4 c5.7-7,14.3-11.4,24-11.4c17.1,0,31,13.9,31,31c0,7.4-2.6,14.3-7,19.6C428,620.7,419.4,625.1,409.8,625.1z">
        </path>
        <path d="M896.8,489.8c-11.9,6.7-19.6,11-27.2,15.3c-69.1,38.9-139.1,76.2-206.8,117.4c-24.6,15-44.9,20.4-67.3,7.4 c0.2-1.9,0.3-3.8,0.3-5.8c0-30.9-25.1-56-56-56s-56,25.1-56,56c0,30.9,25.1,56,56,56c8,0,15.6-1.7,22.5-4.7h0 c15.1,9,29.7,17.8,44.1,26.9c11.6,7.3,19.8,6.2,30.9-0.2c53.8-31,108.1-61.2,162.3-91.6c11.1-6.2,22.1-12.5,37.2-20.9 c0.4,15.2-0.3,25.6,1.1,35.8c3.8,27.8-6.9,44.6-32.8,57.2c-39.4,19.1-76.7,42.3-118.5,65.9c13,8.1,23.2,13.2,31.8,20.2 c17.2,14,32.2,12,50.5,0.4c32.4-20.5,66.1-39.2,100.4-56.5c18.9-9.6,28.2-20.7,26.5-43.2c-2-28.4,0.2-57.1,0.4-85.7 C896.4,553.6,896.5,523.8,896.8,489.8z M539.8,655.1c-13.2,0-24.5-8.3-29-20c-1.3-3.4-2-7.1-2-11c0-17.1,13.9-31,31-31 c13.7,0,25.4,9,29.5,21.3c1,3,1.5,6.3,1.5,9.7C570.8,641.2,556.8,655.1,539.8,655.1z">
        </path>
        <path d="M865.9,397.8c-1.9-38.3-1.7-76.8-0.1-115.2c0.9-21.2-4.2-34.7-24.7-44.3c-25.8-12.1-49.7-28.1-74.5-42.4 c-25.8-14.9-51.8-29.6-81.3-46.5c0,13.7,0,22.5,0,31.3c0,79.3-1.8,158.6,0.9,237.8c1,28-4,48-24.7,61.1c-8.2-4.7-17.8-7.5-27.9-7.5 c-30.9,0-56,25.1-56,56c0,30.9,25.1,56,56,56c30.9,0,56-25.1,56-55.9c12.9-7.4,25.6-14.6,38.5-21.4c12.1-6.5,15.1-14.2,14.9-27 c-0.6-62.1-0.3-124.2-0.3-186.3v-42.7c13.4,7.1,22.2,12.8,31.7,16.5c26.1,10.3,35.5,27.9,33.7,56.6c-2.7,43.7-0.7,87.6-0.7,135.6 c13.4-7.3,22.8-13.8,33.2-17.8C861.4,433.5,867,419.4,865.9,397.8z M659.1,545.9c-5.1,7.2-13.1,12.1-22.3,13c-1,0.1-2,0.1-3,0.1 c-3.9,0-7.6-0.7-11-2c-11.7-4.4-20-15.8-20-29c0-16.6,13.1-30.2,29.5-31h0c0.5,0,1,0,1.5,0c17.1,0,31,13.9,31,31 C664.8,534.7,662.7,540.9,659.1,545.9z">
        </path>
        <path d="M627.3,356.9c0.9-14.9,1.9-29.5,3.1-44c1.2-13.6-3.6-20.4-14.4-27.3c-52.3-33.5-104.1-67.8-156.1-101.8 c-10.6-7-21.3-13.9-35.7-23.4c13.3-7.4,22.9-11.6,31.2-17.5c23-16.2,42.8-14.4,65.9,2.8c35.1,26.2,72.9,48.6,113,74.9 c1.2-15.3,1-26.6,3.3-37.5c4.5-21.7-4.2-34.1-22.9-45c-33.1-19.4-65.2-40.7-96.4-63c-17.2-12.4-31.3-15.5-50.6-3.6 c-24.3,14.9-50.8,26.2-76.2,39.1c-26.6,13.5-53.1,27.1-83.4,42.5c11.4,7.5,18.8,12.3,26.2,17.1c66.3,43.4,131.7,88.4,199.5,129.5 c24.1,14.7,38.2,29.9,37.6,54.7c-17.9,9.3-30.2,28.1-30.2,49.7c0,30.9,25.1,56,56,56s56-25.1,56-56 C653,384.3,642.7,366.9,627.3,356.9z M624,419.3c-2.2,3.8-5.1,7.1-8.7,9.7c-5.1,3.8-11.5,6-18.3,6c-17.1,0-31-13.9-31-31 c0-5.6,1.5-10.8,4-15.3c5.3-9.4,15.4-15.7,27-15.7c12.7,0,23.6,7.6,28.4,18.6c1.7,3.8,2.6,8,2.6,12.4 C628,409.6,626.5,414.8,624,419.3z">
        </path>
      </g>
    </g>
  </g>
  <g id="SvgjsG1295" featurekey="text1" fill="#480d72"
  transform="matrix(3.656663838261143,0,0,3.656663838261143,169.84507534866736,204.66560267844378)">

    <path d="M2.9684 18.8 l5.1369 0 l0 -5.6842 c0 -0.50526 -0.1228 -0.95438 -0.36842 -1.3474 s-0.56493 -0.69474 -0.95792 -0.90526 s-0.80703 -0.31579 -1.2421 -0.31579 c-0.75789 0 -1.3754 0.25964 -1.8526 0.77895 s-0.71579 1.1158 -0.71579 1.7895 l0 5.6842 z M2.9684 19.957900000000002 l0.000041118 4.0421 l-1.1579 0 l0 -4.0421 l-1.4947 0 l0.69474 -1.1579 l0.8 0 l0 -5.6842 c0 -0.65964 0.16842 -1.2772 0.50526 -1.8526 s0.79299 -1.0316 1.3684 -1.3684 s1.193 -0.50526 1.8526 -0.50526 s1.2772 0.16842 1.8526 0.50526 s1.0316 0.79299 1.3684 1.3684 s0.50526 1.193 0.50526 1.8526 l0 10.884 l-1.1579 0 l0 -4.0421 l-5.1368 0 z M10.526316842105263 24 l0 -8.6105 l0.98947 0.8 c0.65964 -0.68773 1.4737 -1.0316 2.4421 -1.0316 s1.7825 0.32983 2.4421 0.98947 s0.98947 1.4737 0.98947 2.4421 l0 5.4105 l-1.1579 0 l0 -5.4105 c0 -0.65964 -0.22105 -1.2035 -0.66316 -1.6316 s-0.97895 -0.64211 -1.6105 -0.64211 s-1.1684 0.22105 -1.6105 0.66316 s-0.66316 0.97895 -0.66316 1.6105 l0 5.4105 l-1.1579 0 z M26.168452631578944 22.8421 c-0.91227 0.94036 -2.007 1.4105 -3.2842 1.4105 c-1.2351 0 -2.3017 -0.44912 -3.2 -1.3474 s-1.3474 -1.9649 -1.3474 -3.2 c0 -1.2632 0.44912 -2.3368 1.3474 -3.2211 s1.9649 -1.3263 3.2 -1.3263 c1.2772 0 2.372 0.47017 3.2842 1.4105 l1.2632 -1.1789 l0 8.6105 z M22.884252631578946 16.3158 c-0.95438 0 -1.7579 0.32632 -2.4105 0.97895 s-0.97895 1.4561 -0.97895 2.4105 s0.32632 1.7579 0.97895 2.4105 s1.4561 0.97895 2.4105 0.97895 c0.94036 0 1.7404 -0.32983 2.4 -0.98947 s0.98947 -1.4596 0.98947 -2.4 s-0.32983 -1.7404 -0.98947 -2.4 s-1.4596 -0.98947 -2.4 -0.98947 z M29.93685789473684 16.5474 l-1.5579 0 l0 -1.1579 l1.5579 0 l0 -2.4211 l1.1579 -0.56842 l0 2.9895 l1.5368 0 l0 1.1579 l-1.5368 0 l0 7.4526 l-1.1579 0 l0 -7.4526 z M37.81056842105263 15.1579 c1.2632 0 2.3368 0.44211 3.2211 1.3263 s1.3263 1.9579 1.3263 3.2211 c0 1.2351 -0.44211 2.3017 -1.3263 3.2 s-1.9579 1.3474 -3.2211 1.3474 c-1.2351 0 -2.3017 -0.44912 -3.2 -1.3474 s-1.3474 -1.9649 -1.3474 -3.2 c0 -1.2632 0.44912 -2.3368 1.3474 -3.2211 s1.9649 -1.3263 3.2 -1.3263 z M37.81056842105263 16.3158 c-0.95438 0 -1.7579 0.32632 -2.4105 0.97895 s-0.97895 1.4561 -0.97895 2.4105 s0.32632 1.7579 0.97895 2.4105 s1.4561 0.97895 2.4105 0.97895 c0.94036 0 1.7404 -0.32983 2.4 -0.98947 s0.98947 -1.4596 0.98947 -2.4 s-0.32983 -1.7404 -0.98947 -2.4 s-1.4596 -0.98947 -2.4 -0.98947 z M43.30526421052632 24 l0 -14.316 l1.1579 0 l0 14.316 l-1.1579 0 z M45.72631684210526 15.3895 l1.1579 0 l0 8.6105 l-1.1579 0 l0 -8.6105 z M45.72631684210526 12.021 l1.1579 0 l0 1.2632 l-1.1579 0 l0 -1.2632 z M48.65258947368421 28 l0.90526 -0.67366 c0.44912 0.67368 1.1017 1.0105 1.9579 1.0105 c0.70175 0 1.2667 -0.23158 1.6947 -0.69474 s0.64211 -1.0105 0.64211 -1.6421 l0 -2.6316 c-0.64562 0.57543 -1.4035 0.86316 -2.2737 0.86316 c-0.96842 0 -1.7825 -0.32983 -2.4421 -0.98947 s-0.98947 -1.4737 -0.98947 -2.4421 l0 -5.4105 l1.1579 0 l0 5.4105 c0 0.63158 0.22806 1.1684 0.68421 1.6105 s0.98598 0.66316 1.5895 0.66316 c0.65964 0 1.2035 -0.22806 1.6316 -0.68421 s0.64211 -0.98598 0.64211 -1.5895 l0 -5.4105 l1.1579 0 l0 10.611 c0 0.96842 -0.34036 1.793 -1.0211 2.4737 s-1.5053 1.0211 -2.4737 1.0211 c-1.207 0 -2.1615 -0.49825 -2.8632 -1.4947 z">
    </path>
  </g>
  <g id="SvgjsG1296" featurekey="text2" fill="#480d72"
  transform="matrix(5.28365076274565,0,0,5.28365076274565,169.33137295627984,271.8336046267418)">

    <path d="M3.2 18.7579 l1.7053 0 c1.1789 0 2.1333 -0.39299 2.8632 -1.1789 s1.0947 -1.7123 1.0947 -2.7789 c0 -0.78596 -0.18947 -1.4807 -0.56842 -2.0842 s-0.87017 -1.0667 -1.4737 -1.3895 s-1.2421 -0.48421 -1.9158 -0.48421 l-1.7053 0 l0 7.9158 z M4.9053 9.684 c0.91227 0 1.7649 0.22806 2.5579 0.68421 s1.4176 1.0807 1.8737 1.8737 s0.68421 1.6456 0.68421 2.5579 c0 1.4175 -0.49825 2.6246 -1.4947 3.6211 s-2.2036 1.4947 -3.6211 1.4947 l-1.7053 0 l0 4.0842 l-1.1579 0 l0 -13.158 l-1.7263 0 l0.69474 -1.1579 l3.8947 0 z M15.200042105263158 15.1579 c1.2632 0 2.3368 0.44211 3.2211 1.3263 s1.3263 1.9579 1.3263 3.2211 c0 1.2351 -0.44211 2.3017 -1.3263 3.2 s-1.9579 1.3474 -3.2211 1.3474 c-1.2351 0 -2.3017 -0.44912 -3.2 -1.3474 s-1.3474 -1.9649 -1.3474 -3.2 c0 -1.2632 0.44912 -2.3368 1.3474 -3.2211 s1.9649 -1.3263 3.2 -1.3263 z M15.200042105263158 16.3158 c-0.95438 0 -1.7579 0.32632 -2.4105 0.97895 s-0.97895 1.4561 -0.97895 2.4105 s0.32632 1.7579 0.97895 2.4105 s1.4561 0.97895 2.4105 0.97895 c0.94036 0 1.7404 -0.32983 2.4 -0.98947 s0.98947 -1.4596 0.98947 -2.4 s-0.32983 -1.7404 -0.98947 -2.4 s-1.4596 -0.98947 -2.4 -0.98947 z M20.69473789473684 24 l0 -14.316 l1.1579 0 l0 14.316 l-1.1579 0 z M27.347410526315787 15.1579 c1.2632 0 2.3368 0.44211 3.2211 1.3263 s1.3263 1.9579 1.3263 3.2211 c0 1.2351 -0.44211 2.3017 -1.3263 3.2 s-1.9579 1.3474 -3.2211 1.3474 c-1.2351 0 -2.3017 -0.44912 -3.2 -1.3474 s-1.3474 -1.9649 -1.3474 -3.2 c0 -1.2632 0.44912 -2.3368 1.3474 -3.2211 s1.9649 -1.3263 3.2 -1.3263 z M27.347410526315787 16.3158 c-0.95438 0 -1.7579 0.32632 -2.4105 0.97895 s-0.97895 1.4561 -0.97895 2.4105 s0.32632 1.7579 0.97895 2.4105 s1.4561 0.97895 2.4105 0.97895 c0.94036 0 1.7404 -0.32983 2.4 -0.98947 s0.98947 -1.4596 0.98947 -2.4 s-0.32983 -1.7404 -0.98947 -2.4 s-1.4596 -0.98947 -2.4 -0.98947 z M34.37892631578947 22.8421 l3.7895 0 l0 1.1579 l-5.6421 0 l3.6842 -7.4526 l-3.6211 0 l0 -1.1579 l5.4737 0 z">
    </path>
  </g>
  <g id="SvgjsG1297" featurekey="text3" fill="#480d72"
  transform="matrix(0.9845556075277174,0,0,0.9845556075277174,185.32163671609436,403.83727849836254)">

    <path d="M14.119 23.69492 c0.08458 0.16966 0.033898 0.30508 -0.15254 0.30508 l-1.5424 0 c-0.15254 0 -0.23712 -0.067631 -0.28797 -0.18644 l-1.0508 -2.2034 l-7.3051 0 l-1.0339 2.2034 c-0.067797 0.11881 -0.15254 0.18644 -0.28814 0.18644 l-1.5593 0 c-0.16949 0 -0.25424 -0.13543 -0.18644 -0.30508 l6.3898 -13.186 c0.050847 -0.11864 0.13559 -0.15254 0.22034 -0.15254 l0.22017 0 c0.084746 0 0.15254 0.033898 0.22034 0.15254 z M4.6103 19.8646 l5.6441 0 l-2.8136 -6 z M26.457457627118643 10.424 l-1.3729 0 c-0.16949 0 -0.27119 0.10186 -0.27119 0.28831 l0 8.1864 c0 2.2542 -1.5932 3.3729 -3.4746 3.3729 c-1.8475 0 -3.3898 -1.1186 -3.3898 -3.3729 l0 -8.1864 c0 -0.18644 -0.10153 -0.28831 -0.27119 -0.28831 l-1.339 0 c-0.18644 0 -0.30508 0.10186 -0.30508 0.28831 l0 8.322 c0 2.8136 1.9661 5.0846 5.3051 5.0846 c3.3559 0 5.3729 -2.271 5.3898 -5.0846 l0 -8.322 c0 -0.18644 -0.10169 -0.28831 -0.27119 -0.28831 z M39.05025423728814 10.441 c0.15254 0 0.27102 0.10169 0.27102 0.27119 l0 1.3051 c0 0.15254 -0.11864 0.27119 -0.27119 0.27119 l-4.0846 0 l0 11.424 c0 0.18644 -0.10169 0.28797 -0.27119 0.28797 l-0.98305 0 c-0.44068 0 -0.66102 -0.28797 -0.66102 -0.6778 l0 -11.034 l-4.0846 0 c-0.15254 0 -0.28814 -0.10169 -0.28814 -0.27119 l0 -1.288 c0 -0.16966 0.11864 -0.28831 0.28814 -0.28831 l10.085 0 z M48.05064576271186 24.11864 c3.8136 0 6.9153 -3.0337 6.9153 -6.9151 c0 -3.8305 -3.1017 -6.8814 -6.9153 -6.8814 c-3.8475 0 -6.9492 3.0508 -6.9492 6.8814 c0 3.8814 3.1017 6.9151 6.9492 6.9151 z M48.05064576271186 22.2714 c-2.7458 0 -5.0339 -2.2881 -5.0339 -5.0678 c0 -2.7456 2.2881 -5.0337 5.0339 -5.0337 c2.7288 0 5.0169 2.2881 5.0169 5.0337 c0 2.7797 -2.2881 5.0678 -5.0169 5.0678 z M72.52505084745763 10.441 c0.15254 0 0.27168 0.11881 0.27168 0.28847 l0 12.983 c0 0.15254 -0.10169 0.28797 -0.27136 0.28797 l-1.339 0 c-0.18644 0 -0.28814 -0.11864 -0.28814 -0.28814 l0 -9.339 l-5.5254 9.0339 c-0.084746 0.13559 -0.16949 0.20339 -0.30508 0.20339 l-0.08458 0 c-0.13559 0 -0.22034 -0.067797 -0.30508 -0.20339 l-5.5085 -9.0339 l0 9.339 c0 0.15254 -0.11881 0.28797 -0.28831 0.28797 l-1.339 0 c-0.16949 0 -0.28831 -0.11864 -0.28831 -0.28814 l0 -13 c0 -0.15254 0.10186 -0.27119 0.27119 -0.27119 l1.1525 0 c0.15254 0 0.25424 0.050847 0.33898 0.18644 l6.0169 9.8307 l6.0168 -9.8307 c0.067797 -0.13559 0.16949 -0.18644 0.33898 -0.18644 l1.1356 0 z M88.1867966101695 23.69492 c0.08458 0.16966 0.033898 0.30508 -0.15254 0.30508 l-1.5424 0 c-0.15254 0 -0.23712 -0.067631 -0.28797 -0.18644 l-1.0508 -2.2034 l-7.3051 0 l-1.0339 2.2034 c-0.067797 0.11881 -0.15254 0.18644 -0.28814 0.18644 l-1.5593 0 c-0.16949 0 -0.25424 -0.13543 -0.18644 -0.30508 l6.3898 -13.186 c0.050847 -0.11864 0.13559 -0.15254 0.22034 -0.15254 l0.22017 0 c0.084746 0 0.15254 0.033898 0.22034 0.15254 z M78.67809661016949 19.8646 l5.6441 0 l-2.8136 -6 z M100.05025423728814 10.441 c0.15254 0 0.27102 0.10169 0.27102 0.27119 l0 1.3051 c0 0.15254 -0.11864 0.27119 -0.27119 0.27119 l-4.0846 0 l0 11.424 c0 0.18644 -0.10169 0.28797 -0.27119 0.28797 l-0.98305 0 c-0.44068 0 -0.66102 -0.28797 -0.66102 -0.6778 l0 -11.034 l-4.0846 0 c-0.15254 0 -0.28814 -0.10169 -0.28814 -0.27119 l0 -1.288 c0 -0.16966 0.11864 -0.28831 0.28814 -0.28831 l10.085 0 z M111.00004576271186 12.288 l-6.7288 0 l0 4.1356 l3.8983 0 c0.16949 0 0.28814 0.11864 0.28814 0.28814 l0 1.2712 c0 0.18644 -0.11864 0.28814 -0.28814 0.28814 l-3.8983 0 l0.016784 3.8814 l6.712 0 c0.16949 0 0.28814 0.11864 0.28814 0.28814 l0 1.2712 c0 0.16949 -0.11864 0.28814 -0.28814 0.28814 l-8.3559 0 c-0.16949 0 -0.28831 -0.11864 -0.28831 -0.28814 l0 -13 c0 -0.15254 0.10186 -0.27119 0.27119 -0.27119 l8.3731 0 c0.16949 0 0.28814 0.11864 0.28814 0.27119 l0 1.3051 c0 0.16949 -0.11864 0.27119 -0.28814 0.27119 z M119.9322 10.441 l-1.3053 -0.00016552 c-0.16949 0 -0.27119 0.11864 -0.27119 0.27119 l0 13 c0 0.16949 0.11864 0.28814 0.28831 0.28814 l1.3051 0 c0.15254 0 0.25424 -0.13543 0.25424 -0.28797 l0 -13 c0 -0.15254 -0.11864 -0.27119 -0.27119 -0.27119 z M132.69432203389832 10.441 c0.15254 0 0.27102 0.10169 0.27102 0.27119 l0 1.3051 c0 0.15254 -0.11864 0.27119 -0.27119 0.27119 l-4.0846 0 l0 11.424 c0 0.18644 -0.10169 0.28797 -0.27119 0.28797 l-0.98305 0 c-0.44068 0 -0.66102 -0.28797 -0.66102 -0.6778 l0 -11.034 l-4.0846 0 c-0.15254 0 -0.28814 -0.10169 -0.28814 -0.27119 l0 -1.288 c0 -0.16966 0.11864 -0.28831 0.28814 -0.28831 l10.085 0 z M152.5088305084746 23.69492 c0.08458 0.16966 0.033898 0.30508 -0.15254 0.30508 l-1.5424 0 c-0.15254 0 -0.23712 -0.067631 -0.28797 -0.18644 l-1.0508 -2.2034 l-7.3051 0 l-1.0339 2.2034 c-0.067797 0.11881 -0.15254 0.18644 -0.28814 0.18644 l-1.5593 0 c-0.16949 0 -0.25424 -0.13543 -0.18644 -0.30508 l6.3898 -13.186 c0.050847 -0.11864 0.13559 -0.15254 0.22034 -0.15254 l0.22017 0 c0.084746 0 0.15254 0.033898 0.22034 0.15254 z M143.0001305084746 19.8646 l5.6441 0 l-2.8136 -6 z M162.55928813559325 22.1525 c0.15238 0 0.27102 0.10169 0.27102 0.28814 l0 1.2881 c0 0.15238 -0.11881 0.27102 -0.27119 0.27102 l-8 0 c-0.15254 0 -0.22034 -0.11864 -0.22034 -0.27102 l0 -13.017 c0 -0.15254 0.10169 -0.27119 0.27136 -0.27119 l1.3729 0 c0.15254 0 0.27119 0.11864 0.27119 0.27119 l0 11.441 l6.3051 0 z M173.0847118644068 22.1525 c0.15238 0 0.27102 0.10169 0.27102 0.28814 l0 1.2881 c0 0.15238 -0.11881 0.27102 -0.27119 0.27102 l-8 0 c-0.15254 0 -0.22034 -0.11864 -0.22034 -0.27102 l0 -13.017 c0 -0.15254 0.10169 -0.27119 0.27136 -0.27119 l1.3729 0 c0.15254 0 0.27119 0.11864 0.27119 0.27119 l0 11.441 l6.3051 0 z">
    </path>
  </g>
</svg>
